<svg xmlns="http://www.w3.org/2000/svg" xmlns:xlink="http://www.w3.org/1999/xlink" width="336.08" height="348" viewBox="0 0 252.06 261"><defs><style>*{stroke-linejoin:round;stroke-linecap:butt}</style></defs><g id="figure_1"><g id="axes_1"><path id="patch_2" d="M164.7 202.08a19.8 19.8 0 1 0 0-39.602 19.8 19.8 0 0 0 0 39.602z" clip-path="url(#p2423e3bdc1)" style="fill:none;stroke:#172033;stroke-width:2.2;stroke-linejoin:miter"/><path id="line2d_1" d="M22.5 182.28h16.2" clip-path="url(#p2423e3bdc1)" style="fill:none;stroke:#172033;stroke-width:2.2;stroke-linecap:round"/><path id="line2d_2" d="M38.7 182.28h25.2v-9h36v18h-36v-9m36 0h25.2" clip-path="url(#p2423e3bdc1)" style="fill:none;stroke:#172033;stroke-width:2.2;stroke-linecap:round"/><path id="line2d_3" d="M125.1 182.28h19.8" clip-path="url(#p2423e3bdc1)" style="fill:none;stroke:#172033;stroke-width:2.2;stroke-linecap:round"/><path id="line2d_4" d="M144.9 182.28h13.2" clip-path="url(#p2423e3bdc1)" style="fill:none;stroke:#172033;stroke-width:2.2;stroke-linecap:round"/><path id="line2d_5" d="M158.1 169.08v26.4" clip-path="url(#p2423e3bdc1)" style="fill:none;stroke:#172033;stroke-width:2.2;stroke-linecap:round"/><path id="line2d_6" d="m158.1 175.68 13.86-11.88v-6.6" clip-path="url(#p2423e3bdc1)" style="fill:none;stroke:#172033;stroke-width:2.2;stroke-linecap:round"/><path id="line2d_7" d="m158.1 188.88 13.86 11.88v6.6" clip-path="url(#p2423e3bdc1)" style="fill:none;stroke:#172033;stroke-width:2.2;stroke-linecap:round"/><path id="line2d_8" d="m158.1 188.88 7.027 6.023" clip-path="url(#p2423e3bdc1)" style="fill:none;stroke:#172033;stroke-width:2.2;stroke-linecap:round"/><path id="patch_3" d="m167.47 192.17 4.49 8.59-9.176-3.124z" clip-path="url(#p2423e3bdc1)" style="fill:#172033"/><path id="line2d_9" d="M171.96 157.2v-19.8" clip-path="url(#p2423e3bdc1)" style="fill:none;stroke:#172033;stroke-width:2.2;stroke-linecap:round"/><path id="line2d_10" d="M171.96 137.4h57.6" clip-path="url(#p2423e3bdc1)" style="fill:none;stroke:#172033;stroke-width:2.2;stroke-linecap:round"/><path id="line2d_11" d="M171.96 137.4v-25.2h-9v-36h18v36h-9m0-36V51" clip-path="url(#p2423e3bdc1)" style="fill:none;stroke:#172033;stroke-width:2.2;stroke-linecap:round"/><path id="line2d_12" d="M171.96 51V38.4" clip-path="url(#p2423e3bdc1)" style="fill:none;stroke:#172033;stroke-width:2.2;stroke-linecap:round"/><path id="line2d_13" d="M171.96 38.4V24" clip-path="url(#p2423e3bdc1)" style="fill:none;stroke:#172033;stroke-width:2.2;stroke-linecap:round"/><path id="line2d_14" d="M171.96 24h-6.75" clip-path="url(#p2423e3bdc1)" style="fill:none;stroke:#172033;stroke-width:2.2;stroke-linecap:round"/><path id="line2d_15" d="M171.96 24h6.75" clip-path="url(#p2423e3bdc1)" style="fill:none;stroke:#172033;stroke-width:2.2;stroke-linecap:round"/><path id="line2d_16" d="M171.96 207.36v25.92" clip-path="url(#p2423e3bdc1)" style="fill:none;stroke:#172033;stroke-width:2.2;stroke-linecap:round"/><path id="line2d_17" d="M171.96 233.28v14.4h-9 18m-15.3 4.32h12.6m-8.1 4.32h3.6" clip-path="url(#p2423e3bdc1)" style="fill:none;stroke:#172033;stroke-width:2.2;stroke-linecap:round"/><g id="text_1" style="fill:#172033" transform="matrix(.15 0 0 -.15 72.825 163.68)"><defs><path id="DejaVuSans-Oblique-52" d="m1613 4147-319-1656h812q478 0 773 264 296 264 296 689 0 340-199 521-198 182-570 182zm1159-1906q200-47 333-232 133-184 308-734L3809 0h-665l-366 1197q-140 462-325 618-184 157-565 157h-697L806 0H172l909 4666h1422q647 0 992-293 346-292 346-842 0-487-294-844-294-356-775-446" transform="scale(.01563)"/><path id="DejaVuSans-Oblique-42" d="M1081 4666h1613q656 0 981-244t325-734q0-450-280-777-279-327-732-395 387-88 581-335t194-659q0-703-521-1113Q2722 0 1819 0H172zm153-2438L903 519h1016q572 0 881 262 309 263 309 741 0 369-205 537-204 169-657 169zm372 1919-275-1406h941q503 0 786 218 283 219 283 607 0 303-191 442t-609 139z" transform="scale(.01563)"/></defs><use xlink:href="#DejaVuSans-Oblique-52" transform="translate(0 .094)"/><use xlink:href="#DejaVuSans-Oblique-42" transform="matrix(.7 0 0 .7 69.482 -16.313)"/></g><g id="text_2" style="fill:#172033" transform="matrix(.15 0 0 -.15 192.42 186.72)"><defs><path id="DejaVuSans-Oblique-51" d="M2309-84q-34-4-72-5-37-2-112-2-875 0-1369 502-493 502-493 1386 0 522 189 1047t526 944q391 481 880 721 489 241 1080 241 856 0 1349-505 494-504 494-1376 0-941-516-1722Q3750 366 2919 44l634-869h-706zm610 4322q-519 0-916-252t-690-767q-188-328-287-697-98-369-98-744 0-650 311-1003t880-353q512 0 913 254 402 255 687 758 190 338 290 708 100 371 100 739 0 647-313 1002-312 355-877 355" transform="scale(.01563)"/><path id="DejaVuSans-31" d="M794 531h1031v3560L703 3866v575l1116 225h631V531h1031V0H794z" transform="scale(.01563)"/></defs><use xlink:href="#DejaVuSans-Oblique-51" transform="translate(0 .781)"/><use xlink:href="#DejaVuSans-31" transform="matrix(.7 0 0 .7 78.71 -15.625)"/></g><path id="patch_4" d="M229.56 140.1a2.7 2.7 0 1 0 0-5.4 2.7 2.7 0 0 0 0 5.4z" clip-path="url(#p2423e3bdc1)" style="fill:#fff;stroke:#172033;stroke-width:2.2;stroke-linejoin:miter"/><g id="text_3" style="fill:#172033" transform="matrix(.15 0 0 -.15 237.3 141.63)"><defs><path id="DejaVuSans-Oblique-41" d="M2356 4666h716L3938 0h-660l-194 1197H984L325 0h-666zm228-622L1275 1722h1713z" transform="scale(.01563)"/></defs><use xlink:href="#DejaVuSans-Oblique-41" transform="translate(0 .844)"/><path d="M0 85.5v6.25h68.408V85.5z"/></g><g id="text_4" style="fill:#172033" transform="matrix(.15 0 0 -.15 188.88 98.34)"><defs><path id="DejaVuSans-Oblique-43" d="m4447 4306-128-665q-300 303-636 450t-727 147q-534 0-939-257-404-256-698-781-188-337-287-714-98-377-98-758 0-637 330-972 330-334 958-334 434 0 834 139t778 417l-146-747Q3316 72 2936-9q-380-82-761-82-897 0-1402 487-504 488-504 1357 0 556 192 1093 192 538 552 982 381 472 870 697t1139 225q400 0 758-111t667-333" transform="scale(.01563)"/></defs><use xlink:href="#DejaVuSans-Oblique-52" transform="translate(0 .094)"/><use xlink:href="#DejaVuSans-Oblique-43" transform="matrix(.7 0 0 .7 69.482 -16.313)"/></g><g id="text_5" style="fill:#172033" transform="matrix(.15 0 0 -.15 159.285 16.56)"><defs><path id="DejaVuSans-Oblique-56" d="M1319 0 500 4666h619l678-4013 2266 4013h687L2053 0z" transform="scale(.01563)"/></defs><use xlink:href="#DejaVuSans-Oblique-56" transform="translate(0 .094)"/><use xlink:href="#DejaVuSans-Oblique-43" transform="matrix(.7 0 0 .7 68.408 -16.313)"/><use xlink:href="#DejaVuSans-Oblique-43" transform="matrix(.7 0 0 .7 117.285 -16.313)"/></g><path id="patch_5" d="M22.5 184.98a2.7 2.7 0 1 0 0-5.4 2.7 2.7 0 0 0 0 5.4z" clip-path="url(#p2423e3bdc1)" style="fill:#fff;stroke:#172033;stroke-width:2.2;stroke-linejoin:miter"/><g id="text_6" style="fill:#172033" transform="matrix(.15 0 0 -.15 4.5 186.42)"><defs><path id="DejaVuSans-41" d="m2188 4044-857-2322h1716zm-357 622h716L4325 0h-656l-425 1197H1141L716 0H50z" transform="scale(.01563)"/></defs><use xlink:href="#DejaVuSans-41"/></g><path id="patch_6" d="M171.96 140.1a2.7 2.7 0 1 0 0-5.4 2.7 2.7 0 0 0 0 5.4z" clip-path="url(#p2423e3bdc1)" style="fill:#172033;stroke:#172033;stroke-width:2.2;stroke-linejoin:miter"/></g></g><defs><clipPath id="p2423e3bdc1"><path d="M0 0h252.06v261H0z"/></clipPath></defs></svg>