<svg xmlns="http://www.w3.org/2000/svg" xmlns:xlink="http://www.w3.org/1999/xlink" width="403.504" height="336.8pt" viewBox="0 0 302.628 336.8"><defs><style>*{stroke-linejoin:round;stroke-linecap:butt}</style></defs><g id="figure_1"><g id="axes_1"><path id="patch_2" d="M149.628 180.92a19.8 19.8 0 1 0 0-39.602 19.8 19.8 0 0 0 0 39.602z" clip-path="url(#p38ea2699d4)" style="fill:none;stroke:#172033;stroke-width:2.2;stroke-linejoin:miter"/><path id="patch_3" d="M149.628 277.88a19.8 19.8 0 1 0 0-39.602 19.8 19.8 0 0 0 0 39.602z" clip-path="url(#p38ea2699d4)" style="fill:none;stroke:#172033;stroke-width:2.2;stroke-linejoin:miter"/><path id="line2d_1" d="M129.828 161.12h13.2" clip-path="url(#p38ea2699d4)" style="fill:none;stroke:#172033;stroke-width:2.2;stroke-linecap:round"/><path id="line2d_2" d="M143.028 147.92v26.4" clip-path="url(#p38ea2699d4)" style="fill:none;stroke:#172033;stroke-width:2.2;stroke-linecap:round"/><path id="line2d_3" d="m143.028 154.52 13.86-11.88v-6.6" clip-path="url(#p38ea2699d4)" style="fill:none;stroke:#172033;stroke-width:2.2;stroke-linecap:round"/><path id="line2d_4" d="m143.028 167.72 13.86 11.88v6.6" clip-path="url(#p38ea2699d4)" style="fill:none;stroke:#172033;stroke-width:2.2;stroke-linecap:round"/><path id="line2d_5" d="m143.028 167.72 7.027 6.023" clip-path="url(#p38ea2699d4)" style="fill:none;stroke:#172033;stroke-width:2.2;stroke-linecap:round"/><path id="patch_4" d="m152.398 171.01 4.49 8.59-9.176-3.124z" clip-path="url(#p38ea2699d4)" style="fill:#172033"/><path id="line2d_6" d="M156.888 186.2V233" clip-path="url(#p38ea2699d4)" style="fill:none;stroke:#172033;stroke-width:2.2;stroke-linecap:round"/><path id="line2d_7" d="M129.828 258.08h13.2" clip-path="url(#p38ea2699d4)" style="fill:none;stroke:#172033;stroke-width:2.2;stroke-linecap:round"/><path id="line2d_8" d="M143.028 244.88v26.4" clip-path="url(#p38ea2699d4)" style="fill:none;stroke:#172033;stroke-width:2.2;stroke-linecap:round"/><path id="line2d_9" d="m143.028 251.48 13.86-11.88V233" clip-path="url(#p38ea2699d4)" style="fill:none;stroke:#172033;stroke-width:2.2;stroke-linecap:round"/><path id="line2d_10" d="m143.028 264.68 13.86 11.88v6.6" clip-path="url(#p38ea2699d4)" style="fill:none;stroke:#172033;stroke-width:2.2;stroke-linecap:round"/><path id="line2d_11" d="m143.028 264.68 7.027 6.023" clip-path="url(#p38ea2699d4)" style="fill:none;stroke:#172033;stroke-width:2.2;stroke-linecap:round"/><path id="patch_5" d="m152.398 267.97 4.49 8.59-9.176-3.124z" clip-path="url(#p38ea2699d4)" style="fill:#172033"/><path id="line2d_12" d="M21.828 161.12h15.12" clip-path="url(#p38ea2699d4)" style="fill:none;stroke:#172033;stroke-width:2.2;stroke-linecap:round"/><path id="line2d_13" d="M36.948 161.12h9.9v-9h36v18h-36v-9m36 0h9.9" clip-path="url(#p38ea2699d4)" style="fill:none;stroke:#172033;stroke-width:2.2;stroke-linecap:round"/><path id="line2d_14" d="M92.748 161.12h37.08" clip-path="url(#p38ea2699d4)" style="fill:none;stroke:#172033;stroke-width:2.2;stroke-linecap:round"/><path id="line2d_15" d="M21.828 258.08h15.12" clip-path="url(#p38ea2699d4)" style="fill:none;stroke:#172033;stroke-width:2.2;stroke-linecap:round"/><path id="line2d_16" d="M36.948 258.08h9.9v-9h36v18h-36v-9m36 0h9.9" clip-path="url(#p38ea2699d4)" style="fill:none;stroke:#172033;stroke-width:2.2;stroke-linecap:round"/><path id="line2d_17" d="M92.748 258.08h37.08" clip-path="url(#p38ea2699d4)" style="fill:none;stroke:#172033;stroke-width:2.2;stroke-linecap:round"/><path id="line2d_18" d="M156.888 136.04h59.4" clip-path="url(#p38ea2699d4)" style="fill:none;stroke:#172033;stroke-width:2.2;stroke-linecap:round"/><path id="line2d_19" d="M156.888 136.04v-25.2h-9v-36h18v36h-9m0-36v-25.2" clip-path="url(#p38ea2699d4)" style="fill:none;stroke:#172033;stroke-width:2.2;stroke-linecap:round"/><path id="line2d_20" d="M156.888 49.64V37.4" clip-path="url(#p38ea2699d4)" style="fill:none;stroke:#172033;stroke-width:2.2;stroke-linecap:round"/><path id="line2d_21" d="M156.888 37.4V23" clip-path="url(#p38ea2699d4)" style="fill:none;stroke:#172033;stroke-width:2.2;stroke-linecap:round"/><path id="line2d_22" d="M156.888 23h-6.75" clip-path="url(#p38ea2699d4)" style="fill:none;stroke:#172033;stroke-width:2.2;stroke-linecap:round"/><path id="line2d_23" d="M156.888 23h6.75" clip-path="url(#p38ea2699d4)" style="fill:none;stroke:#172033;stroke-width:2.2;stroke-linecap:round"/><path id="line2d_24" d="M156.888 283.16v25.92" clip-path="url(#p38ea2699d4)" style="fill:none;stroke:#172033;stroke-width:2.2;stroke-linecap:round"/><path id="line2d_25" d="M156.888 309.08v14.4h-9 18m-15.3 4.32h12.6m-8.1 4.32h3.6" clip-path="url(#p38ea2699d4)" style="fill:none;stroke:#172033;stroke-width:2.2;stroke-linecap:round"/><g id="text_1" style="fill:#172033" transform="matrix(.14 0 0 -.14 176.628 165.283)"><defs><path id="DejaVuSans-Oblique-51" d="M2309-84q-34-4-72-5-37-2-112-2-875 0-1369 502-493 502-493 1386 0 522 189 1047t526 944q391 481 880 721 489 241 1080 241 856 0 1349-505 494-504 494-1376 0-941-516-1722Q3750 366 2919 44l634-869h-706zm610 4322q-519 0-916-252t-690-767q-188-328-287-697-98-369-98-744 0-650 311-1003t880-353q512 0 913 254 402 255 687 758 190 338 290 708 100 371 100 739 0 647-313 1002-312 355-877 355" transform="scale(.01563)"/><path id="DejaVuSans-31" d="M794 531h1031v3560L703 3866v575l1116 225h631V531h1031V0H794z" transform="scale(.01563)"/></defs><use xlink:href="#DejaVuSans-Oblique-51" transform="translate(0 .781)"/><use xlink:href="#DejaVuSans-31" transform="matrix(.7 0 0 .7 78.71 -15.625)"/></g><g id="text_2" style="fill:#172033" transform="matrix(.14 0 0 -.14 176.628 262.243)"><defs><path id="DejaVuSans-32" d="M1228 531h2203V0H469v531q359 372 979 998 621 627 780 809 303 340 423 576 121 236 121 464 0 372-261 606-261 235-680 235-297 0-627-103-329-103-704-313v638q381 153 712 231 332 78 607 78 725 0 1156-363 431-362 431-968 0-288-108-546-107-257-392-607-78-91-497-524-418-433-1181-1211" transform="scale(.01563)"/></defs><use xlink:href="#DejaVuSans-Oblique-51" transform="translate(0 .781)"/><use xlink:href="#DejaVuSans-32" transform="matrix(.7 0 0 .7 78.71 -15.625)"/></g><g id="text_3" style="fill:#172033" transform="matrix(.14 0 0 -.14 53.298 142.728)"><defs><path id="DejaVuSans-Oblique-52" d="m1613 4147-319-1656h812q478 0 773 264 296 264 296 689 0 340-199 521-198 182-570 182zm1159-1906q200-47 333-232 133-184 308-734L3809 0h-665l-366 1197q-140 462-325 618-184 157-565 157h-697L806 0H172l909 4666h1422q647 0 992-293 346-292 346-842 0-487-294-844-294-356-775-446" transform="scale(.01563)"/><path id="DejaVuSans-Oblique-42" d="M1081 4666h1613q656 0 981-244t325-734q0-450-280-777-279-327-732-395 387-88 581-335t194-659q0-703-521-1113Q2722 0 1819 0H172zm153-2438L903 519h1016q572 0 881 262 309 263 309 741 0 369-205 537-204 169-657 169zm372 1919-275-1406h941q503 0 786 218 283 219 283 607 0 303-191 442t-609 139z" transform="scale(.01563)"/></defs><use xlink:href="#DejaVuSans-Oblique-52" transform="translate(0 .094)"/><use xlink:href="#DejaVuSans-Oblique-42" transform="matrix(.7 0 0 .7 69.482 -16.313)"/><use xlink:href="#DejaVuSans-31" transform="matrix(.7 0 0 .7 117.505 -16.313)"/></g><g id="text_4" style="fill:#172033" transform="matrix(.14 0 0 -.14 53.298 239.688)"><use xlink:href="#DejaVuSans-Oblique-52" transform="translate(0 .094)"/><use xlink:href="#DejaVuSans-Oblique-42" transform="matrix(.7 0 0 .7 69.482 -16.313)"/><use xlink:href="#DejaVuSans-32" transform="matrix(.7 0 0 .7 117.505 -16.313)"/></g><path id="patch_6" d="M216.288 138.74a2.7 2.7 0 1 0 0-5.4 2.7 2.7 0 0 0 0 5.4z" clip-path="url(#p38ea2699d4)" style="fill:#fff;stroke:#172033;stroke-width:2.2;stroke-linejoin:miter"/><g id="text_5" style="fill:#172033" transform="matrix(.14 0 0 -.14 224.028 139.988)"><defs><path id="DejaVuSans-Oblique-59" d="M403 4666h678l872-1919 1663 1919h709L2209 2222 1778 0h-631l428 2222z" transform="scale(.01563)"/><path id="DejaVuSans-3d" d="M678 2906h4006v-525H678zm0-1275h4006v-531H678z" transform="scale(.01563)"/><path id="DejaVuSans-Oblique-41" d="M2356 4666h716L3938 0h-660l-194 1197H984L325 0h-666zm228-622L1275 1722h1713z" transform="scale(.01563)"/><path id="DejaVuSans-22c5" d="M684 2619h660v-794H684z" transform="scale(.01563)"/></defs><use xlink:href="#DejaVuSans-Oblique-59" transform="translate(0 .344)"/><use xlink:href="#DejaVuSans-3d" transform="translate(80.566 .344)"/><use xlink:href="#DejaVuSans-Oblique-41" transform="translate(183.838 .844)"/><use xlink:href="#DejaVuSans-22c5" transform="translate(271.729 .844)"/><use xlink:href="#DejaVuSans-Oblique-42" transform="translate(322.998 .844)"/><path d="M183.838 85.5v6.25h207.764V85.5z"/></g><g id="text_6" style="fill:#172033" transform="matrix(.14 0 0 -.14 173.808 96.703)"><defs><path id="DejaVuSans-Oblique-43" d="m4447 4306-128-665q-300 303-636 450t-727 147q-534 0-939-257-404-256-698-781-188-337-287-714-98-377-98-758 0-637 330-972 330-334 958-334 434 0 834 139t778 417l-146-747Q3316 72 2936-9q-380-82-761-82-897 0-1402 487-504 488-504 1357 0 556 192 1093 192 538 552 982 381 472 870 697t1139 225q400 0 758-111t667-333" transform="scale(.01563)"/></defs><use xlink:href="#DejaVuSans-Oblique-52" transform="translate(0 .094)"/><use xlink:href="#DejaVuSans-Oblique-43" transform="matrix(.7 0 0 .7 69.482 -16.313)"/></g><g id="text_7" style="fill:#172033" transform="matrix(.14 0 0 -.14 145.058 15.768)"><defs><path id="DejaVuSans-Oblique-56" d="M1319 0 500 4666h619l678-4013 2266 4013h687L2053 0z" transform="scale(.01563)"/></defs><use xlink:href="#DejaVuSans-Oblique-56" transform="translate(0 .094)"/><use xlink:href="#DejaVuSans-Oblique-43" transform="matrix(.7 0 0 .7 68.408 -16.313)"/><use xlink:href="#DejaVuSans-Oblique-43" transform="matrix(.7 0 0 .7 117.285 -16.313)"/></g><path id="patch_7" d="M21.828 163.82a2.7 2.7 0 1 0 0-5.4 2.7 2.7 0 0 0 0 5.4z" clip-path="url(#p38ea2699d4)" style="fill:#fff;stroke:#172033;stroke-width:2.2;stroke-linejoin:miter"/><g id="text_8" style="fill:#172033" transform="matrix(.14 0 0 -.14 4.511 164.983)"><defs><path id="DejaVuSans-41" d="m2188 4044-857-2322h1716zm-357 622h716L4325 0h-656l-425 1197H1141L716 0H50z" transform="scale(.01563)"/></defs><use xlink:href="#DejaVuSans-41"/></g><path id="patch_8" d="M21.828 260.78a2.7 2.7 0 1 0 0-5.4 2.7 2.7 0 0 0 0 5.4z" clip-path="url(#p38ea2699d4)" style="fill:#fff;stroke:#172033;stroke-width:2.2;stroke-linejoin:miter"/><g id="text_9" style="fill:#172033" transform="matrix(.14 0 0 -.14 4.483 261.943)"><defs><path id="DejaVuSans-42" d="M1259 2228V519h1013q509 0 754 211 246 211 246 645 0 438-246 645-245 208-754 208zm0 1919V2741h935q462 0 688 173 227 174 227 530 0 353-227 528-226 175-688 175zm-631 519h1613q722 0 1112-300 391-300 391-853 0-429-200-682t-588-315q466-100 724-418 258-317 258-792 0-625-425-966Q3088 0 2303 0H628z" transform="scale(.01563)"/></defs><use xlink:href="#DejaVuSans-42"/></g><path id="patch_9" d="M156.888 138.74a2.7 2.7 0 1 0 0-5.4 2.7 2.7 0 0 0 0 5.4z" clip-path="url(#p38ea2699d4)" style="fill:#172033;stroke:#172033;stroke-width:2.2;stroke-linejoin:miter"/></g></g><defs><clipPath id="p38ea2699d4"><path d="M0 0h302.628v336.8H0z"/></clipPath></defs></svg>