<svg xmlns="http://www.w3.org/2000/svg" xmlns:xlink="http://www.w3.org/1999/xlink" width="1039.291" height="438.187" viewBox="0 0 779.468 328.64"><defs><style>*{stroke-linejoin:round;stroke-linecap:butt}</style></defs><g id="figure_1"><g id="axes_1"><path id="patch_2" d="M156.828 249.56a19.8 19.8 0 1 0 0-39.602 19.8 19.8 0 0 0 0 39.602z" clip-path="url(#p3a336f3997)" style="fill:none;stroke:#172033;stroke-width:2.2;stroke-linejoin:miter"/><path id="patch_3" d="M318.828 249.56a19.8 19.8 0 1 0 0-39.602 19.8 19.8 0 0 0 0 39.602z" clip-path="url(#p3a336f3997)" style="fill:none;stroke:#172033;stroke-width:2.2;stroke-linejoin:miter"/><path id="patch_4" d="M480.828 249.56a19.8 19.8 0 1 0 0-39.602 19.8 19.8 0 0 0 0 39.602z" clip-path="url(#p3a336f3997)" style="fill:none;stroke:#172033;stroke-width:2.2;stroke-linejoin:miter"/><path id="patch_5" d="M615.888 206.48a19.8 19.8 0 1 0 0-39.602 19.8 19.8 0 0 0 0 39.602z" clip-path="url(#p3a336f3997)" style="fill:none;stroke:#172033;stroke-width:2.2;stroke-linejoin:miter"/><path id="line2d_1" d="M137.028 229.76h13.2" clip-path="url(#p3a336f3997)" style="fill:none;stroke:#172033;stroke-width:2.2;stroke-linecap:round"/><path id="line2d_2" d="M150.228 216.56v26.4" clip-path="url(#p3a336f3997)" style="fill:none;stroke:#172033;stroke-width:2.2;stroke-linecap:round"/><path id="line2d_3" d="m150.228 223.16 13.86-11.88v-6.6" clip-path="url(#p3a336f3997)" style="fill:none;stroke:#172033;stroke-width:2.2;stroke-linecap:round"/><path id="line2d_4" d="m150.228 236.36 13.86 11.88v6.6" clip-path="url(#p3a336f3997)" style="fill:none;stroke:#172033;stroke-width:2.2;stroke-linecap:round"/><path id="line2d_5" d="m150.228 236.36 7.027 6.023" clip-path="url(#p3a336f3997)" style="fill:none;stroke:#172033;stroke-width:2.2;stroke-linecap:round"/><path id="patch_6" d="m159.598 239.65 4.49 8.59-9.176-3.124z" clip-path="url(#p3a336f3997)" style="fill:#172033"/><path id="line2d_6" d="M299.028 229.76h13.2" clip-path="url(#p3a336f3997)" style="fill:none;stroke:#172033;stroke-width:2.2;stroke-linecap:round"/><path id="line2d_7" d="M312.228 216.56v26.4" clip-path="url(#p3a336f3997)" style="fill:none;stroke:#172033;stroke-width:2.2;stroke-linecap:round"/><path id="line2d_8" d="m312.228 223.16 13.86-11.88v-6.6" clip-path="url(#p3a336f3997)" style="fill:none;stroke:#172033;stroke-width:2.2;stroke-linecap:round"/><path id="line2d_9" d="m312.228 236.36 13.86 11.88v6.6" clip-path="url(#p3a336f3997)" style="fill:none;stroke:#172033;stroke-width:2.2;stroke-linecap:round"/><path id="line2d_10" d="m312.228 236.36 7.027 6.023" clip-path="url(#p3a336f3997)" style="fill:none;stroke:#172033;stroke-width:2.2;stroke-linecap:round"/><path id="patch_7" d="m321.598 239.65 4.49 8.59-9.176-3.124z" clip-path="url(#p3a336f3997)" style="fill:#172033"/><path id="line2d_11" d="M461.028 229.76h13.2" clip-path="url(#p3a336f3997)" style="fill:none;stroke:#172033;stroke-width:2.2;stroke-linecap:round"/><path id="line2d_12" d="M474.228 216.56v26.4" clip-path="url(#p3a336f3997)" style="fill:none;stroke:#172033;stroke-width:2.2;stroke-linecap:round"/><path id="line2d_13" d="m474.228 223.16 13.86-11.88v-6.6" clip-path="url(#p3a336f3997)" style="fill:none;stroke:#172033;stroke-width:2.2;stroke-linecap:round"/><path id="line2d_14" d="m474.228 236.36 13.86 11.88v6.6" clip-path="url(#p3a336f3997)" style="fill:none;stroke:#172033;stroke-width:2.2;stroke-linecap:round"/><path id="line2d_15" d="m474.228 236.36 7.027 6.023" clip-path="url(#p3a336f3997)" style="fill:none;stroke:#172033;stroke-width:2.2;stroke-linecap:round"/><path id="patch_8" d="m483.598 239.65 4.49 8.59-9.176-3.124z" clip-path="url(#p3a336f3997)" style="fill:#172033"/><path id="line2d_16" d="M164.088 204.68v-18" clip-path="url(#p3a336f3997)" style="fill:none;stroke:#172033;stroke-width:2.2;stroke-linecap:round"/><path id="line2d_17" d="M164.088 254.84v18" clip-path="url(#p3a336f3997)" style="fill:none;stroke:#172033;stroke-width:2.2;stroke-linecap:round"/><path id="line2d_18" d="M326.088 204.68v-18" clip-path="url(#p3a336f3997)" style="fill:none;stroke:#172033;stroke-width:2.2;stroke-linecap:round"/><path id="line2d_19" d="M326.088 254.84v18" clip-path="url(#p3a336f3997)" style="fill:none;stroke:#172033;stroke-width:2.2;stroke-linecap:round"/><path id="line2d_20" d="M488.088 204.68v-18" clip-path="url(#p3a336f3997)" style="fill:none;stroke:#172033;stroke-width:2.2;stroke-linecap:round"/><path id="line2d_21" d="M488.088 254.84v18" clip-path="url(#p3a336f3997)" style="fill:none;stroke:#172033;stroke-width:2.2;stroke-linecap:round"/><path id="line2d_22" d="M164.088 186.68h324" clip-path="url(#p3a336f3997)" style="fill:none;stroke:#172033;stroke-width:2.2;stroke-linecap:round"/><path id="line2d_23" d="M164.088 272.84h324" clip-path="url(#p3a336f3997)" style="fill:none;stroke:#172033;stroke-width:2.2;stroke-linecap:round"/><path id="line2d_24" d="M21.828 229.76h10.8" clip-path="url(#p3a336f3997)" style="fill:none;stroke:#172033;stroke-width:2.2;stroke-linecap:round"/><path id="line2d_25" d="M32.628 229.76h3.6v-9h36v18h-36v-9m36 0h3.6" clip-path="url(#p3a336f3997)" style="fill:none;stroke:#172033;stroke-width:2.2;stroke-linecap:round"/><path id="line2d_26" d="M75.828 229.76h61.2" clip-path="url(#p3a336f3997)" style="fill:none;stroke:#172033;stroke-width:2.2;stroke-linecap:round"/><path id="line2d_27" d="M230.628 229.76h10.8" clip-path="url(#p3a336f3997)" style="fill:none;stroke:#172033;stroke-width:2.2;stroke-linecap:round"/><path id="line2d_28" d="M241.428 229.76h3.6v-9h36v18h-36v-9m36 0h3.6" clip-path="url(#p3a336f3997)" style="fill:none;stroke:#172033;stroke-width:2.2;stroke-linecap:round"/><path id="line2d_29" d="M284.628 229.76h14.4" clip-path="url(#p3a336f3997)" style="fill:none;stroke:#172033;stroke-width:2.2;stroke-linecap:round"/><path id="line2d_30" d="M392.628 229.76h10.8" clip-path="url(#p3a336f3997)" style="fill:none;stroke:#172033;stroke-width:2.2;stroke-linecap:round"/><path id="line2d_31" d="M403.428 229.76h3.6v-9h36v18h-36v-9m36 0h3.6" clip-path="url(#p3a336f3997)" style="fill:none;stroke:#172033;stroke-width:2.2;stroke-linecap:round"/><path id="line2d_32" d="M446.628 229.76h14.4" clip-path="url(#p3a336f3997)" style="fill:none;stroke:#172033;stroke-width:2.2;stroke-linecap:round"/><path id="line2d_33" d="M488.088 186.68h23.4" clip-path="url(#p3a336f3997)" style="fill:none;stroke:#172033;stroke-width:2.2;stroke-linecap:round"/><path id="line2d_34" d="M511.488 186.68h13.5v-9h36v18h-36v-9m36 0h13.5" clip-path="url(#p3a336f3997)" style="fill:none;stroke:#172033;stroke-width:2.2;stroke-linecap:round"/><path id="line2d_35" d="M574.488 186.68h21.6" clip-path="url(#p3a336f3997)" style="fill:none;stroke:#172033;stroke-width:2.2;stroke-linecap:round"/><path id="line2d_36" d="M596.088 186.68h13.2" clip-path="url(#p3a336f3997)" style="fill:none;stroke:#172033;stroke-width:2.2;stroke-linecap:round"/><path id="line2d_37" d="M609.288 173.48v26.4" clip-path="url(#p3a336f3997)" style="fill:none;stroke:#172033;stroke-width:2.2;stroke-linecap:round"/><path id="line2d_38" d="m609.288 180.08 13.86-11.88v-6.6" clip-path="url(#p3a336f3997)" style="fill:none;stroke:#172033;stroke-width:2.2;stroke-linecap:round"/><path id="line2d_39" d="m609.288 193.28 13.86 11.88v6.6" clip-path="url(#p3a336f3997)" style="fill:none;stroke:#172033;stroke-width:2.2;stroke-linecap:round"/><path id="line2d_40" d="m609.288 193.28 7.027 6.023" clip-path="url(#p3a336f3997)" style="fill:none;stroke:#172033;stroke-width:2.2;stroke-linecap:round"/><path id="patch_9" d="m618.658 196.57 4.49 8.59-9.176-3.124z" clip-path="url(#p3a336f3997)" style="fill:#172033"/><path id="line2d_41" d="M623.148 161.6v-16.2" clip-path="url(#p3a336f3997)" style="fill:none;stroke:#172033;stroke-width:2.2;stroke-linecap:round"/><path id="line2d_42" d="M623.148 145.4h59.4" clip-path="url(#p3a336f3997)" style="fill:none;stroke:#172033;stroke-width:2.2;stroke-linecap:round"/><path id="line2d_43" d="M326.088 186.68v-45.84" clip-path="url(#p3a336f3997)" style="fill:none;stroke:#172033;stroke-width:2.2;stroke-linecap:round"/><path id="line2d_44" d="M326.088 140.84v-10.8h-9v-36h18v36h-9m0-36v-10.8" clip-path="url(#p3a336f3997)" style="fill:none;stroke:#172033;stroke-width:2.2;stroke-linecap:round"/><path id="line2d_45" d="M326.088 83.24V37.4" clip-path="url(#p3a336f3997)" style="fill:none;stroke:#172033;stroke-width:2.2;stroke-linecap:round"/><path id="line2d_46" d="M623.148 145.4v-25.2" clip-path="url(#p3a336f3997)" style="fill:none;stroke:#172033;stroke-width:2.2;stroke-linecap:round"/><path id="line2d_47" d="M623.148 120.2v-10.8h-9v-36h18v36h-9m0-36V62.6" clip-path="url(#p3a336f3997)" style="fill:none;stroke:#172033;stroke-width:2.2;stroke-linecap:round"/><path id="line2d_48" d="M623.148 62.6V37.4" clip-path="url(#p3a336f3997)" style="fill:none;stroke:#172033;stroke-width:2.2;stroke-linecap:round"/><path id="line2d_49" d="M326.088 37.4h297.06" clip-path="url(#p3a336f3997)" style="fill:none;stroke:#172033;stroke-width:2.2;stroke-linecap:round"/><path id="line2d_50" d="M474.618 37.4V23" clip-path="url(#p3a336f3997)" style="fill:none;stroke:#172033;stroke-width:2.2;stroke-linecap:round"/><path id="line2d_51" d="M474.618 23h-6.75" clip-path="url(#p3a336f3997)" style="fill:none;stroke:#172033;stroke-width:2.2;stroke-linecap:round"/><path id="line2d_52" d="M474.618 23h6.75" clip-path="url(#p3a336f3997)" style="fill:none;stroke:#172033;stroke-width:2.2;stroke-linecap:round"/><path id="line2d_53" d="M326.088 272.84v28.08" clip-path="url(#p3a336f3997)" style="fill:none;stroke:#172033;stroke-width:2.2;stroke-linecap:round"/><path id="line2d_54" d="M623.148 211.76v89.16" clip-path="url(#p3a336f3997)" style="fill:none;stroke:#172033;stroke-width:2.2;stroke-linecap:round"/><path id="line2d_55" d="M326.088 300.92h297.06" clip-path="url(#p3a336f3997)" style="fill:none;stroke:#172033;stroke-width:2.2;stroke-linecap:round"/><path id="line2d_56" d="M474.618 300.92v14.4h-9 18m-15.3 4.32h12.6m-8.1 4.32h3.6" clip-path="url(#p3a336f3997)" style="fill:none;stroke:#172033;stroke-width:2.2;stroke-linecap:round"/><g id="text_1" style="fill:#172033" transform="matrix(.14 0 0 -.14 182.388 233.923)"><defs><path id="DejaVuSans-Oblique-51" d="M2309-84q-34-4-72-5-37-2-112-2-875 0-1369 502-493 502-493 1386 0 522 189 1047t526 944q391 481 880 721 489 241 1080 241 856 0 1349-505 494-504 494-1376 0-941-516-1722Q3750 366 2919 44l634-869h-706zm610 4322q-519 0-916-252t-690-767q-188-328-287-697-98-369-98-744 0-650 311-1003t880-353q512 0 913 254 402 255 687 758 190 338 290 708 100 371 100 739 0 647-313 1002-312 355-877 355" transform="scale(.01563)"/><path id="DejaVuSans-31" d="M794 531h1031v3560L703 3866v575l1116 225h631V531h1031V0H794z" transform="scale(.01563)"/></defs><use xlink:href="#DejaVuSans-Oblique-51" transform="translate(0 .781)"/><use xlink:href="#DejaVuSans-31" transform="matrix(.7 0 0 .7 78.71 -15.625)"/></g><g id="text_2" style="fill:#172033" transform="matrix(.14 0 0 -.14 344.388 233.923)"><defs><path id="DejaVuSans-32" d="M1228 531h2203V0H469v531q359 372 979 998 621 627 780 809 303 340 423 576 121 236 121 464 0 372-261 606-261 235-680 235-297 0-627-103-329-103-704-313v638q381 153 712 231 332 78 607 78 725 0 1156-363 431-362 431-968 0-288-108-546-107-257-392-607-78-91-497-524-418-433-1181-1211" transform="scale(.01563)"/></defs><use xlink:href="#DejaVuSans-Oblique-51" transform="translate(0 .781)"/><use xlink:href="#DejaVuSans-32" transform="matrix(.7 0 0 .7 78.71 -15.625)"/></g><g id="text_3" style="fill:#172033" transform="matrix(.14 0 0 -.14 506.388 233.923)"><defs><path id="DejaVuSans-33" d="M2597 2516q453-97 707-404 255-306 255-756 0-690-475-1069Q2609-91 1734-91q-293 0-604 58T488 141v609q262-153 574-231 313-78 654-78 593 0 904 234t311 681q0 413-289 645-289 233-804 233h-544v519h569q465 0 712 186t247 536q0 359-255 551-254 193-729 193-260 0-557-57-297-56-653-174v562q360 100 674 150t592 50q719 0 1137-327 419-326 419-882 0-388-222-655t-631-370" transform="scale(.01563)"/></defs><use xlink:href="#DejaVuSans-Oblique-51" transform="translate(0 .781)"/><use xlink:href="#DejaVuSans-33" transform="matrix(.7 0 0 .7 78.71 -15.625)"/></g><g id="text_4" style="fill:#172033" transform="matrix(.14 0 0 -.14 45.758 211.368)"><defs><path id="DejaVuSans-Oblique-52" d="m1613 4147-319-1656h812q478 0 773 264 296 264 296 689 0 340-199 521-198 182-570 182zm1159-1906q200-47 333-232 133-184 308-734L3809 0h-665l-366 1197q-140 462-325 618-184 157-565 157h-697L806 0H172l909 4666h1422q647 0 992-293 346-292 346-842 0-487-294-844-294-356-775-446" transform="scale(.01563)"/><path id="DejaVuSans-Oblique-41" d="M2356 4666h716L3938 0h-660l-194 1197H984L325 0h-666zm228-622L1275 1722h1713z" transform="scale(.01563)"/></defs><use xlink:href="#DejaVuSans-Oblique-52" transform="translate(0 .094)"/><use xlink:href="#DejaVuSans-Oblique-41" transform="matrix(.7 0 0 .7 69.482 -16.313)"/></g><g id="text_5" style="fill:#172033" transform="matrix(.14 0 0 -.14 254.558 211.368)"><defs><path id="DejaVuSans-Oblique-42" d="M1081 4666h1613q656 0 981-244t325-734q0-450-280-777-279-327-732-395 387-88 581-335t194-659q0-703-521-1113Q2722 0 1819 0H172zm153-2438L903 519h1016q572 0 881 262 309 263 309 741 0 369-205 537-204 169-657 169zm372 1919-275-1406h941q503 0 786 218 283 219 283 607 0 303-191 442t-609 139z" transform="scale(.01563)"/></defs><use xlink:href="#DejaVuSans-Oblique-52" transform="translate(0 .094)"/><use xlink:href="#DejaVuSans-Oblique-42" transform="matrix(.7 0 0 .7 69.482 -16.313)"/></g><g id="text_6" style="fill:#172033" transform="matrix(.14 0 0 -.14 416.488 211.368)"><defs><path id="DejaVuSans-Oblique-43" d="m4447 4306-128-665q-300 303-636 450t-727 147q-534 0-939-257-404-256-698-781-188-337-287-714-98-377-98-758 0-637 330-972 330-334 958-334 434 0 834 139t778 417l-146-747Q3316 72 2936-9q-380-82-761-82-897 0-1402 487-504 488-504 1357 0 556 192 1093 192 538 552 982 381 472 870 697t1139 225q400 0 758-111t667-333" transform="scale(.01563)"/></defs><use xlink:href="#DejaVuSans-Oblique-52" transform="translate(0 .094)"/><use xlink:href="#DejaVuSans-Oblique-43" transform="matrix(.7 0 0 .7 69.482 -16.313)"/></g><g id="text_7" style="fill:#172033" transform="matrix(.14 0 0 -.14 531.438 168.288)"><defs><path id="DejaVuSans-34" d="M2419 4116 825 1625h1594zm-166 550h794V1625h666v-525h-666V0h-628v1100H313v609z" transform="scale(.01563)"/></defs><use xlink:href="#DejaVuSans-Oblique-52" transform="translate(0 .094)"/><use xlink:href="#DejaVuSans-Oblique-42" transform="matrix(.7 0 0 .7 69.482 -16.313)"/><use xlink:href="#DejaVuSans-34" transform="matrix(.7 0 0 .7 117.505 -16.313)"/></g><g id="text_8" style="fill:#172033" transform="matrix(.14 0 0 -.14 642.888 190.843)"><use xlink:href="#DejaVuSans-Oblique-51" transform="translate(0 .781)"/><use xlink:href="#DejaVuSans-34" transform="matrix(.7 0 0 .7 78.71 -15.625)"/></g><path id="patch_10" d="M682.548 148.1a2.7 2.7 0 1 0 0-5.4 2.7 2.7 0 0 0 0 5.4z" clip-path="url(#p3a336f3997)" style="fill:#fff;stroke:#172033;stroke-width:2.2;stroke-linejoin:miter"/><g id="text_9" style="fill:#172033" transform="matrix(.14 0 0 -.14 690.288 149.263)"><defs><path id="DejaVuSans-Oblique-59" d="M403 4666h678l872-1919 1663 1919h709L2209 2222 1778 0h-631l428 2222z" transform="scale(.01563)"/><path id="DejaVuSans-3d" d="M678 2906h4006v-525H678zm0-1275h4006v-531H678z" transform="scale(.01563)"/><path id="DejaVuSans-2b" d="M2944 4013V2272h1740v-531H2944V0h-525v1741H678v531h1741v1741z" transform="scale(.01563)"/></defs><use xlink:href="#DejaVuSans-Oblique-59" transform="translate(0 .781)"/><use xlink:href="#DejaVuSans-3d" transform="translate(80.566 .781)"/><use xlink:href="#DejaVuSans-Oblique-41" transform="translate(183.838 .781)"/><use xlink:href="#DejaVuSans-2b" transform="translate(271.729 .781)"/><use xlink:href="#DejaVuSans-Oblique-42" transform="translate(375 .781)"/><use xlink:href="#DejaVuSans-2b" transform="translate(463.086 .781)"/><use xlink:href="#DejaVuSans-Oblique-43" transform="translate(566.357 .781)"/></g><g id="text_10" style="fill:#172033" transform="matrix(.14 0 0 -.14 286.648 115.903)"><use xlink:href="#DejaVuSans-Oblique-52" transform="translate(0 .094)"/><use xlink:href="#DejaVuSans-Oblique-43" transform="matrix(.7 0 0 .7 69.482 -16.313)"/><use xlink:href="#DejaVuSans-31" transform="matrix(.7 0 0 .7 118.36 -16.313)"/></g><g id="text_11" style="fill:#172033" transform="matrix(.14 0 0 -.14 639.348 95.263)"><use xlink:href="#DejaVuSans-Oblique-52" transform="translate(0 .094)"/><use xlink:href="#DejaVuSans-Oblique-43" transform="matrix(.7 0 0 .7 69.482 -16.313)"/><use xlink:href="#DejaVuSans-32" transform="matrix(.7 0 0 .7 118.36 -16.313)"/></g><g id="text_12" style="fill:#172033" transform="matrix(.14 0 0 -.14 462.788 15.768)"><defs><path id="DejaVuSans-Oblique-56" d="M1319 0 500 4666h619l678-4013 2266 4013h687L2053 0z" transform="scale(.01563)"/></defs><use xlink:href="#DejaVuSans-Oblique-56" transform="translate(0 .094)"/><use xlink:href="#DejaVuSans-Oblique-43" transform="matrix(.7 0 0 .7 68.408 -16.313)"/><use xlink:href="#DejaVuSans-Oblique-43" transform="matrix(.7 0 0 .7 117.285 -16.313)"/></g><path id="patch_11" d="M488.088 189.38a2.7 2.7 0 1 0 0-5.4 2.7 2.7 0 0 0 0 5.4z" clip-path="url(#p3a336f3997)" style="fill:#172033;stroke:#172033;stroke-width:2.2;stroke-linejoin:miter"/><path id="patch_12" d="M21.828 232.46a2.7 2.7 0 1 0 0-5.4 2.7 2.7 0 0 0 0 5.4z" clip-path="url(#p3a336f3997)" style="fill:#fff;stroke:#172033;stroke-width:2.2;stroke-linejoin:miter"/><g id="text_13" style="fill:#172033" transform="matrix(.14 0 0 -.14 4.511 233.623)"><defs><path id="DejaVuSans-41" d="m2188 4044-857-2322h1716zm-357 622h716L4325 0h-656l-425 1197H1141L716 0H50z" transform="scale(.01563)"/></defs><use xlink:href="#DejaVuSans-41"/></g><path id="patch_13" d="M230.628 232.46a2.7 2.7 0 1 0 0-5.4 2.7 2.7 0 0 0 0 5.4z" clip-path="url(#p3a336f3997)" style="fill:#fff;stroke:#172033;stroke-width:2.2;stroke-linejoin:miter"/><g id="text_14" style="fill:#172033" transform="matrix(.14 0 0 -.14 213.283 233.623)"><defs><path id="DejaVuSans-42" d="M1259 2228V519h1013q509 0 754 211 246 211 246 645 0 438-246 645-245 208-754 208zm0 1919V2741h935q462 0 688 173 227 174 227 530 0 353-227 528-226 175-688 175zm-631 519h1613q722 0 1112-300 391-300 391-853 0-429-200-682t-588-315q466-100 724-418 258-317 258-792 0-625-425-966Q3088 0 2303 0H628z" transform="scale(.01563)"/></defs><use xlink:href="#DejaVuSans-42"/></g><path id="patch_14" d="M392.628 232.46a2.7 2.7 0 1 0 0-5.4 2.7 2.7 0 0 0 0 5.4z" clip-path="url(#p3a336f3997)" style="fill:#fff;stroke:#172033;stroke-width:2.2;stroke-linejoin:miter"/><g id="text_15" style="fill:#172033" transform="matrix(.14 0 0 -.14 375.112 233.623)"><defs><path id="DejaVuSans-43" d="M4122 4306v-665q-319 297-680 443-361 147-767 147-800 0-1225-489t-425-1414q0-922 425-1411t1225-489q406 0 767 147t680 444V359q-331-225-702-338-370-112-782-112-1060 0-1670 648-609 649-609 1771 0 1125 609 1773 610 649 1670 649 418 0 788-111 371-111 696-333" transform="scale(.01563)"/></defs><use xlink:href="#DejaVuSans-43"/></g><path id="patch_15" d="M623.148 148.1a2.7 2.7 0 1 0 0-5.4 2.7 2.7 0 0 0 0 5.4z" clip-path="url(#p3a336f3997)" style="fill:#172033;stroke:#172033;stroke-width:2.2;stroke-linejoin:miter"/><path id="patch_16" d="M474.618 303.62a2.7 2.7 0 1 0 0-5.4 2.7 2.7 0 0 0 0 5.4z" clip-path="url(#p3a336f3997)" style="fill:#172033;stroke:#172033;stroke-width:2.2;stroke-linejoin:miter"/></g></g><defs><clipPath id="p3a336f3997"><path d="M0 0h756.54v328.64H0z"/></clipPath></defs></svg>