<svg xmlns="http://www.w3.org/2000/svg" xmlns:xlink="http://www.w3.org/1999/xlink" width="322.464" height="415.627" viewBox="0 0 241.848 311.72"><defs><style>*{stroke-linejoin:round;stroke-linecap:butt}</style></defs><g id="figure_1"><path id="patch_1" d="M0 311.72h241.848V0H0z" style="fill:none"/><g id="axes_1"><path id="patch_2" d="M19.368 172.4h217.8V78.8h-217.8z" clip-path="url(#pc38d3d8d95)" style="fill:none;stroke:#172033;stroke-width:2.2;stroke-linecap:round"/><path id="patch_3" d="M49.968 125.6h16.2v-16.2h-16.2z" clip-path="url(#pc38d3d8d95)" style="fill:#333;stroke:#172033;stroke-width:2.2;stroke-linecap:round"/><path id="patch_4" d="M49.968 141.8h16.2v-16.2h-16.2z" clip-path="url(#pc38d3d8d95)" style="fill:none;stroke:#172033;stroke-width:2.2;stroke-linecap:round"/><path id="patch_5" d="M96.768 125.6h16.2v-16.2h-16.2z" clip-path="url(#pc38d3d8d95)" style="fill:none;stroke:#172033;stroke-width:2.2;stroke-linecap:round"/><path id="patch_6" d="M96.768 141.8h16.2v-16.2h-16.2z" clip-path="url(#pc38d3d8d95)" style="fill:#333;stroke:#172033;stroke-width:2.2;stroke-linecap:round"/><path id="patch_7" d="M143.568 125.6h16.2v-16.2h-16.2z" clip-path="url(#pc38d3d8d95)" style="fill:#333;stroke:#172033;stroke-width:2.2;stroke-linecap:round"/><path id="patch_8" d="M143.568 141.8h16.2v-16.2h-16.2z" clip-path="url(#pc38d3d8d95)" style="fill:none;stroke:#172033;stroke-width:2.2;stroke-linecap:round"/><path id="patch_9" d="M190.368 125.6h16.2v-16.2h-16.2z" clip-path="url(#pc38d3d8d95)" style="fill:none;stroke:#172033;stroke-width:2.2;stroke-linecap:round"/><path id="patch_10" d="M190.368 141.8h16.2v-16.2h-16.2z" clip-path="url(#pc38d3d8d95)" style="fill:#333;stroke:#172033;stroke-width:2.2;stroke-linecap:round"/><path id="line2d_1" d="M58.068 78.8V53.6" clip-path="url(#pc38d3d8d95)" style="fill:none;stroke:#172033;stroke-width:2.2;stroke-linecap:round"/><path id="line2d_2" d="M58.068 172.4v19.8" clip-path="url(#pc38d3d8d95)" style="fill:none;stroke:#172033;stroke-width:2.2;stroke-linecap:round"/><path id="line2d_3" d="M58.068 192.2V203" clip-path="url(#pc38d3d8d95)" style="fill:none;stroke:#172033;stroke-width:2.2;stroke-linecap:round"/><path id="line2d_4" d="M58.068 203v9h9v36h-18v-36h9m0 36v9" clip-path="url(#pc38d3d8d95)" style="fill:none;stroke:#172033;stroke-width:2.2;stroke-linecap:round"/><path id="line2d_5" d="M58.068 257v10.8" clip-path="url(#pc38d3d8d95)" style="fill:none;stroke:#172033;stroke-width:2.2;stroke-linecap:round"/><path id="line2d_6" d="M104.868 78.8V53.6" clip-path="url(#pc38d3d8d95)" style="fill:none;stroke:#172033;stroke-width:2.2;stroke-linecap:round"/><path id="line2d_7" d="M104.868 172.4v19.8" clip-path="url(#pc38d3d8d95)" style="fill:none;stroke:#172033;stroke-width:2.2;stroke-linecap:round"/><path id="line2d_8" d="M104.868 192.2V203" clip-path="url(#pc38d3d8d95)" style="fill:none;stroke:#172033;stroke-width:2.2;stroke-linecap:round"/><path id="line2d_9" d="M104.868 203v9h9v36h-18v-36h9m0 36v9" clip-path="url(#pc38d3d8d95)" style="fill:none;stroke:#172033;stroke-width:2.2;stroke-linecap:round"/><path id="line2d_10" d="M104.868 257v10.8" clip-path="url(#pc38d3d8d95)" style="fill:none;stroke:#172033;stroke-width:2.2;stroke-linecap:round"/><path id="line2d_11" d="M151.668 78.8V53.6" clip-path="url(#pc38d3d8d95)" style="fill:none;stroke:#172033;stroke-width:2.2;stroke-linecap:round"/><path id="line2d_12" d="M151.668 172.4v19.8" clip-path="url(#pc38d3d8d95)" style="fill:none;stroke:#172033;stroke-width:2.2;stroke-linecap:round"/><path id="line2d_13" d="M151.668 192.2V203" clip-path="url(#pc38d3d8d95)" style="fill:none;stroke:#172033;stroke-width:2.2;stroke-linecap:round"/><path id="line2d_14" d="M151.668 203v9h9v36h-18v-36h9m0 36v9" clip-path="url(#pc38d3d8d95)" style="fill:none;stroke:#172033;stroke-width:2.2;stroke-linecap:round"/><path id="line2d_15" d="M151.668 257v10.8" clip-path="url(#pc38d3d8d95)" style="fill:none;stroke:#172033;stroke-width:2.2;stroke-linecap:round"/><path id="line2d_16" d="M198.468 78.8V53.6" clip-path="url(#pc38d3d8d95)" style="fill:none;stroke:#172033;stroke-width:2.2;stroke-linecap:round"/><path id="line2d_17" d="M198.468 172.4v19.8" clip-path="url(#pc38d3d8d95)" style="fill:none;stroke:#172033;stroke-width:2.2;stroke-linecap:round"/><path id="line2d_18" d="M198.468 192.2V203" clip-path="url(#pc38d3d8d95)" style="fill:none;stroke:#172033;stroke-width:2.2;stroke-linecap:round"/><path id="line2d_19" d="M198.468 203v9h9v36h-18v-36h9m0 36v9" clip-path="url(#pc38d3d8d95)" style="fill:none;stroke:#172033;stroke-width:2.2;stroke-linecap:round"/><path id="line2d_20" d="M198.468 257v10.8" clip-path="url(#pc38d3d8d95)" style="fill:none;stroke:#172033;stroke-width:2.2;stroke-linecap:round"/><path id="line2d_21" d="M58.068 53.6h140.4" clip-path="url(#pc38d3d8d95)" style="fill:none;stroke:#172033;stroke-width:2.2;stroke-linecap:round"/><path id="line2d_22" d="M128.268 53.6V37.4" clip-path="url(#pc38d3d8d95)" style="fill:none;stroke:#172033;stroke-width:2.2;stroke-linecap:round"/><path id="line2d_23" d="M128.268 37.4V23" clip-path="url(#pc38d3d8d95)" style="fill:none;stroke:#172033;stroke-width:2.2;stroke-linecap:round"/><path id="line2d_24" d="M128.268 23h-6.75" clip-path="url(#pc38d3d8d95)" style="fill:none;stroke:#172033;stroke-width:2.2;stroke-linecap:round"/><path id="line2d_25" d="M128.268 23h6.75" clip-path="url(#pc38d3d8d95)" style="fill:none;stroke:#172033;stroke-width:2.2;stroke-linecap:round"/><path id="line2d_26" d="M58.068 267.8h140.4" clip-path="url(#pc38d3d8d95)" style="fill:none;stroke:#172033;stroke-width:2.2;stroke-linecap:round"/><path id="line2d_27" d="M128.268 267.8V284" clip-path="url(#pc38d3d8d95)" style="fill:none;stroke:#172033;stroke-width:2.2;stroke-linecap:round"/><path id="line2d_28" d="M128.268 284v14.4h-9 18m-15.3 4.32h12.6m-8.1 4.32h3.6" clip-path="url(#pc38d3d8d95)" style="fill:none;stroke:#172033;stroke-width:2.2;stroke-linecap:round"/><g id="text_1" style="fill:#172033" transform="matrix(.14 0 0 -.14 2.468 238.92)"><defs><path id="DejaVuSans-14" d="M794 531h1031v3560L703 3866v575l1116 225h631V531h1031V0H794z" transform="scale(.01563)"/><path id="DejaVuSans-4e" d="M581 4863h578V1991l1716 1509h734L1753 1863 3688 0h-750L1159 1709V0H581z" transform="scale(.01563)"/><path id="DejaVuSans-33d" d="M4647 556V0H2772v556q553 303 862 822 310 519 310 1150 0 750-413 1203-412 453-1087 453t-1089-455q-414-454-414-1201 0-631 309-1150 313-519 869-822V0H244v556h997q-494 435-722 900-225 466-225 1041 0 994 600 1609 597 616 1550 616 947 0 1550-616 600-612 600-1578 0-606-222-1069-222-462-725-903z" transform="scale(.01563)"/></defs><use xlink:href="#DejaVuSans-14" transform="translate(0 .016)"/><use xlink:href="#DejaVuSans-4e" transform="translate(95.41 .016)"/><use xlink:href="#DejaVuSans-33d" transform="translate(153.32 .016)"/></g><g id="text_2" style="fill:#172033" transform="matrix(.14 0 0 -.14 116.438 15.67)"><defs><path id="DejaVuSans-Oblique-39" d="M1319 0 500 4666h619l678-4013 2266 4013h687L2053 0z" transform="scale(.01563)"/><path id="DejaVuSans-Oblique-26" d="m4447 4306-128-665q-300 303-636 450t-727 147q-534 0-939-257-404-256-698-781-188-337-287-714-98-377-98-758 0-637 330-972 330-334 958-334 434 0 834 139t778 417l-146-747Q3316 72 2936-9q-380-82-761-82-897 0-1402 487-504 488-504 1357 0 556 192 1093 192 538 552 982 381 472 870 697t1139 225q400 0 758-111t667-333" transform="scale(.01563)"/></defs><use xlink:href="#DejaVuSans-Oblique-39" transform="translate(0 .094)"/><use xlink:href="#DejaVuSans-Oblique-26" transform="matrix(.7 0 0 .7 68.408 -14.906)"/><use xlink:href="#DejaVuSans-Oblique-26" transform="matrix(.7 0 0 .7 117.285 -14.906)"/></g><path id="patch_11" d="M58.068 194.9a2.7 2.7 0 1 0 0-5.4 2.7 2.7 0 0 0 0 5.4z" clip-path="url(#pc38d3d8d95)" style="fill:#fff;stroke:#172033;stroke-width:2.2;stroke-linejoin:miter"/><g id="text_3" style="fill:#dc2626" transform="matrix(.14 0 0 -.14 65.808 197.303)"><defs><path id="DejaVuSans-24" d="m2188 4044-857-2322h1716zm-357 622h716L4325 0h-656l-425 1197H1141L716 0H50z" transform="scale(.01563)"/></defs><use xlink:href="#DejaVuSans-24"/></g><path id="patch_12" d="M104.868 194.9a2.7 2.7 0 1 0 0-5.4 2.7 2.7 0 0 0 0 5.4z" clip-path="url(#pc38d3d8d95)" style="fill:#fff;stroke:#172033;stroke-width:2.2;stroke-linejoin:miter"/><g id="text_4" style="fill:#dc2626" transform="matrix(.14 0 0 -.14 112.608 197.303)"><defs><path id="DejaVuSans-25" d="M1259 2228V519h1013q509 0 754 211 246 211 246 645 0 438-246 645-245 208-754 208zm0 1919V2741h935q462 0 688 173 227 174 227 530 0 353-227 528-226 175-688 175zm-631 519h1613q722 0 1112-300 391-300 391-853 0-429-200-682t-588-315q466-100 724-418 258-317 258-792 0-625-425-966Q3088 0 2303 0H628z" transform="scale(.01563)"/></defs><use xlink:href="#DejaVuSans-25"/></g><path id="patch_13" d="M151.668 194.9a2.7 2.7 0 1 0 0-5.4 2.7 2.7 0 0 0 0 5.4z" clip-path="url(#pc38d3d8d95)" style="fill:#fff;stroke:#172033;stroke-width:2.2;stroke-linejoin:miter"/><g id="text_5" style="fill:#dc2626" transform="matrix(.14 0 0 -.14 159.408 197.296)"><defs><path id="DejaVuSans-26" d="M4122 4306v-665q-319 297-680 443-361 147-767 147-800 0-1225-489t-425-1414q0-922 425-1411t1225-489q406 0 767 147t680 444V359q-331-225-702-338-370-112-782-112-1060 0-1670 648-609 649-609 1771 0 1125 609 1773 610 649 1670 649 418 0 788-111 371-111 696-333" transform="scale(.01563)"/></defs><use xlink:href="#DejaVuSans-26"/></g><path id="patch_14" d="M198.468 194.9a2.7 2.7 0 1 0 0-5.4 2.7 2.7 0 0 0 0 5.4z" clip-path="url(#pc38d3d8d95)" style="fill:#fff;stroke:#172033;stroke-width:2.2;stroke-linejoin:miter"/><g id="text_6" style="fill:#dc2626" transform="matrix(.14 0 0 -.14 206.208 197.303)"><defs><path id="DejaVuSans-27" d="M1259 4147V519h763q966 0 1414 437 448 438 448 1382 0 937-448 1373t-1414 436zm-631 519h1297q1356 0 1990-564 635-564 635-1764 0-1207-638-1773Q3275 0 1925 0H628z" transform="scale(.01563)"/></defs><use xlink:href="#DejaVuSans-27"/></g></g></g><defs><clipPath id="pc38d3d8d95"><path d="M0 0h241.848v311.72H0z"/></clipPath></defs></svg>