<svg xmlns="http://www.w3.org/2000/svg" xmlns:xlink="http://www.w3.org/1999/xlink" width="785.28" height="711.68" viewBox="0 0 588.96 533.76"><defs><style>*{stroke-linejoin:round;stroke-linecap:butt}</style></defs><g id="figure_1"><g id="axes_1"><path id="patch_2" d="M247.68 107.88a10.8 10.8 0 1 0 0-21.601 10.8 10.8 0 0 0 0 21.601z" clip-path="url(#p67d918024a)" style="fill:#fff;stroke:#dc2626;stroke-width:2.1;stroke-linejoin:miter"/><path id="patch_3" d="M294.48 107.88a10.8 10.8 0 1 0 0-21.601 10.8 10.8 0 0 0 0 21.601z" clip-path="url(#p67d918024a)" style="fill:#fff;stroke:#dc2626;stroke-width:2.1;stroke-linejoin:miter"/><path id="patch_4" d="M341.28 107.88a10.8 10.8 0 1 0 0-21.601 10.8 10.8 0 0 0 0 21.601z" clip-path="url(#p67d918024a)" style="fill:#fff;stroke:#dc2626;stroke-width:2.1;stroke-linejoin:miter"/><path id="patch_5" d="M143.28 168.36a10.8 10.8 0 1 0 0-21.601 10.8 10.8 0 0 0 0 21.601z" clip-path="url(#p67d918024a)" style="fill:#fff;stroke:#dc2626;stroke-width:2.1;stroke-linejoin:miter"/><path id="patch_6" d="M143.28 201.48a10.8 10.8 0 1 0 0-21.601 10.8 10.8 0 0 0 0 21.601z" clip-path="url(#p67d918024a)" style="fill:#fff;stroke:#dc2626;stroke-width:2.1;stroke-linejoin:miter"/><path id="patch_7" d="M143.28 234.6a10.8 10.8 0 1 0 0-21.601 10.8 10.8 0 0 0 0 21.601z" clip-path="url(#p67d918024a)" style="fill:#fff;stroke:#dc2626;stroke-width:2.1;stroke-linejoin:miter"/><path id="patch_8" d="M445.68 168.36a10.8 10.8 0 1 0 0-21.601 10.8 10.8 0 0 0 0 21.601z" clip-path="url(#p67d918024a)" style="fill:#fff;stroke:#dc2626;stroke-width:2.1;stroke-linejoin:miter"/><path id="patch_9" d="M445.68 201.48a10.8 10.8 0 1 0 0-21.601 10.8 10.8 0 0 0 0 21.601z" clip-path="url(#p67d918024a)" style="fill:#fff;stroke:#dc2626;stroke-width:2.1;stroke-linejoin:miter"/><path id="patch_10" d="M445.68 234.6a10.8 10.8 0 1 0 0-21.601 10.8 10.8 0 0 0 0 21.601z" clip-path="url(#p67d918024a)" style="fill:#fff;stroke:#dc2626;stroke-width:2.1;stroke-linejoin:miter"/><path id="patch_11" d="M247.68 287.88a10.8 10.8 0 1 0 0-21.601 10.8 10.8 0 0 0 0 21.601z" clip-path="url(#p67d918024a)" style="fill:#fff;stroke:#dc2626;stroke-width:2.1;stroke-linejoin:miter"/><path id="patch_12" d="M294.48 287.88a10.8 10.8 0 1 0 0-21.601 10.8 10.8 0 0 0 0 21.601z" clip-path="url(#p67d918024a)" style="fill:#fff;stroke:#dc2626;stroke-width:2.1;stroke-linejoin:miter"/><path id="patch_13" d="M341.28 287.88a10.8 10.8 0 1 0 0-21.601 10.8 10.8 0 0 0 0 21.601z" clip-path="url(#p67d918024a)" style="fill:#fff;stroke:#dc2626;stroke-width:2.1;stroke-linejoin:miter"/><path id="patch_14" d="M143.28 341.16a10.8 10.8 0 1 0 0-21.601 10.8 10.8 0 0 0 0 21.601z" clip-path="url(#p67d918024a)" style="fill:#fff;stroke:#dc2626;stroke-width:2.1;stroke-linejoin:miter"/><path id="patch_15" d="M143.28 374.28a10.8 10.8 0 1 0 0-21.601 10.8 10.8 0 0 0 0 21.601z" clip-path="url(#p67d918024a)" style="fill:#fff;stroke:#dc2626;stroke-width:2.1;stroke-linejoin:miter"/><path id="patch_16" d="M143.28 407.4a10.8 10.8 0 1 0 0-21.601 10.8 10.8 0 0 0 0 21.601z" clip-path="url(#p67d918024a)" style="fill:#fff;stroke:#dc2626;stroke-width:2.1;stroke-linejoin:miter"/><path id="patch_17" d="M445.68 341.16a10.8 10.8 0 1 0 0-21.601 10.8 10.8 0 0 0 0 21.601z" clip-path="url(#p67d918024a)" style="fill:#fff;stroke:#dc2626;stroke-width:2.1;stroke-linejoin:miter"/><path id="patch_18" d="M445.68 374.28a10.8 10.8 0 1 0 0-21.601 10.8 10.8 0 0 0 0 21.601z" clip-path="url(#p67d918024a)" style="fill:#fff;stroke:#dc2626;stroke-width:2.1;stroke-linejoin:miter"/><path id="patch_19" d="M445.68 407.4a10.8 10.8 0 1 0 0-21.601 10.8 10.8 0 0 0 0 21.601z" clip-path="url(#p67d918024a)" style="fill:#fff;stroke:#dc2626;stroke-width:2.1;stroke-linejoin:miter"/><path id="patch_20" d="M445.68 457.08a10.8 10.8 0 1 0 0-21.601 10.8 10.8 0 0 0 0 21.601z" clip-path="url(#p67d918024a)" style="fill:#fff;stroke:#dc2626;stroke-width:2.1;stroke-linejoin:miter"/><path id="patch_21" d="M247.68 511.08a10.8 10.8 0 1 0 0-21.601 10.8 10.8 0 0 0 0 21.601z" clip-path="url(#p67d918024a)" style="fill:#fff;stroke:#dc2626;stroke-width:2.1;stroke-linejoin:miter"/><path id="patch_22" d="M294.48 511.08a10.8 10.8 0 1 0 0-21.601 10.8 10.8 0 0 0 0 21.601z" clip-path="url(#p67d918024a)" style="fill:#fff;stroke:#dc2626;stroke-width:2.1;stroke-linejoin:miter"/><path id="patch_23" d="M341.28 511.08a10.8 10.8 0 1 0 0-21.601 10.8 10.8 0 0 0 0 21.601z" clip-path="url(#p67d918024a)" style="fill:#fff;stroke:#dc2626;stroke-width:2.1;stroke-linejoin:miter"/><path id="patch_24" d="m238.68 103.38 9-12.6 9 12.6z" clip-path="url(#p67d918024a)" style="fill:none;stroke:#dc2626;stroke-width:2.1;stroke-linecap:round"/><path id="patch_25" d="m285.48 103.38 9-12.6 9 12.6z" clip-path="url(#p67d918024a)" style="fill:none;stroke:#dc2626;stroke-width:2.1;stroke-linecap:round"/><path id="patch_26" d="m332.28 103.38 9-12.6 9 12.6z" clip-path="url(#p67d918024a)" style="fill:none;stroke:#dc2626;stroke-width:2.1;stroke-linecap:round"/><path id="patch_27" d="m136.98 148.56 12.6 9-12.6 9z" clip-path="url(#p67d918024a)" style="fill:none;stroke:#dc2626;stroke-width:2.1;stroke-linecap:round"/><path id="patch_28" d="m136.98 181.68 12.6 9-12.6 9z" clip-path="url(#p67d918024a)" style="fill:none;stroke:#dc2626;stroke-width:2.1;stroke-linecap:round"/><path id="patch_29" d="m136.98 214.8 12.6 9-12.6 9z" clip-path="url(#p67d918024a)" style="fill:none;stroke:#dc2626;stroke-width:2.1;stroke-linecap:round"/><path id="patch_30" d="m451.98 166.56-12.6-9 12.6-9z" clip-path="url(#p67d918024a)" style="fill:none;stroke:#dc2626;stroke-width:2.1;stroke-linecap:round"/><path id="patch_31" d="m451.98 199.68-12.6-9 12.6-9z" clip-path="url(#p67d918024a)" style="fill:none;stroke:#dc2626;stroke-width:2.1;stroke-linecap:round"/><path id="patch_32" d="m451.98 232.8-12.6-9 12.6-9z" clip-path="url(#p67d918024a)" style="fill:none;stroke:#dc2626;stroke-width:2.1;stroke-linecap:round"/><path id="patch_33" d="m238.68 283.38 9-12.6 9 12.6z" clip-path="url(#p67d918024a)" style="fill:none;stroke:#dc2626;stroke-width:2.1;stroke-linecap:round"/><path id="patch_34" d="m285.48 283.38 9-12.6 9 12.6z" clip-path="url(#p67d918024a)" style="fill:none;stroke:#dc2626;stroke-width:2.1;stroke-linecap:round"/><path id="patch_35" d="m332.28 283.38 9-12.6 9 12.6z" clip-path="url(#p67d918024a)" style="fill:none;stroke:#dc2626;stroke-width:2.1;stroke-linecap:round"/><path id="patch_36" d="m136.98 321.36 12.6 9-12.6 9z" clip-path="url(#p67d918024a)" style="fill:none;stroke:#dc2626;stroke-width:2.1;stroke-linecap:round"/><path id="patch_37" d="m136.98 354.48 12.6 9-12.6 9z" clip-path="url(#p67d918024a)" style="fill:none;stroke:#dc2626;stroke-width:2.1;stroke-linecap:round"/><path id="patch_38" d="m136.98 387.6 12.6 9-12.6 9z" clip-path="url(#p67d918024a)" style="fill:none;stroke:#dc2626;stroke-width:2.1;stroke-linecap:round"/><path id="patch_39" d="m451.98 339.36-12.6-9 12.6-9z" clip-path="url(#p67d918024a)" style="fill:none;stroke:#dc2626;stroke-width:2.1;stroke-linecap:round"/><path id="patch_40" d="m451.98 372.48-12.6-9 12.6-9z" clip-path="url(#p67d918024a)" style="fill:none;stroke:#dc2626;stroke-width:2.1;stroke-linecap:round"/><path id="patch_41" d="m451.98 405.6-12.6-9 12.6-9z" clip-path="url(#p67d918024a)" style="fill:none;stroke:#dc2626;stroke-width:2.1;stroke-linecap:round"/><path id="patch_42" d="m436.68 452.58 9-12.6 9 12.6z" clip-path="url(#p67d918024a)" style="fill:none;stroke:#dc2626;stroke-width:2.1;stroke-linecap:round"/><path id="patch_43" d="m238.68 506.58 9-12.6 9 12.6z" clip-path="url(#p67d918024a)" style="fill:none;stroke:#dc2626;stroke-width:2.1;stroke-linecap:round"/><path id="patch_44" d="m285.48 506.58 9-12.6 9 12.6z" clip-path="url(#p67d918024a)" style="fill:none;stroke:#dc2626;stroke-width:2.1;stroke-linecap:round"/><path id="patch_45" d="m332.28 506.58 9-12.6 9 12.6z" clip-path="url(#p67d918024a)" style="fill:none;stroke:#dc2626;stroke-width:2.1;stroke-linecap:round"/><path id="line2d_1" d="M6.48 39.48h576" clip-path="url(#p67d918024a)" style="fill:none;stroke:#172033;stroke-width:2.1;stroke-linecap:round"/><path id="line2d_2" d="M6.48 39.48v441" clip-path="url(#p67d918024a)" style="fill:none;stroke:#172033;stroke-width:2.1;stroke-linecap:round"/><path id="line2d_3" d="M582.48 39.48v392.4" clip-path="url(#p67d918024a)" style="fill:none;stroke:#172033;stroke-width:2.1;stroke-linecap:round"/><path id="line2d_4" d="M294.48 39.48v-14.4h9-18m15.3-4.32h-12.6m8.1-4.32h-3.6" clip-path="url(#p67d918024a)" style="fill:none;stroke:#172033;stroke-width:2.1;stroke-linecap:round"/><path id="line2d_5" d="M6.48 77.28h334.8" clip-path="url(#p67d918024a)" style="fill:none;stroke:#172033;stroke-width:2.1;stroke-linecap:round"/><path id="line2d_6" d="M247.68 116.88h162" clip-path="url(#p67d918024a)" style="fill:none;stroke:#172033;stroke-width:2.1;stroke-linecap:round"/><path id="line2d_7" d="M247.68 116.88v-13.5m-9-12.6h18m-9 0v-13.5" clip-path="url(#p67d918024a)" style="fill:none;stroke:#dc2626;stroke-width:2.1;stroke-linecap:round"/><path id="line2d_8" d="M294.48 116.88v-13.5m-9-12.6h18m-9 0v-13.5" clip-path="url(#p67d918024a)" style="fill:none;stroke:#dc2626;stroke-width:2.1;stroke-linecap:round"/><path id="line2d_9" d="M341.28 116.88v-13.5m-9-12.6h18m-9 0v-13.5" clip-path="url(#p67d918024a)" style="fill:none;stroke:#dc2626;stroke-width:2.1;stroke-linecap:round"/><path id="line2d_10" d="M409.68 116.88h10.08" clip-path="url(#p67d918024a)" style="fill:none;stroke:#172033;stroke-width:2.1;stroke-linecap:round"/><path id="line2d_11" d="M419.76 116.88h.9v-9h36v18h-36v-9m36 0h.9" clip-path="url(#p67d918024a)" style="fill:none;stroke:#172033;stroke-width:2.1;stroke-linecap:round"/><path id="line2d_12" d="M457.56 116.88h5.76" clip-path="url(#p67d918024a)" style="fill:none;stroke:#172033;stroke-width:2.1;stroke-linecap:round"/><path id="line2d_13" d="m471.96 113.28 20.16-12.6m7.2 16.2" clip-path="url(#p67d918024a)" style="fill:none;stroke:#172033;stroke-width:2.1;stroke-linecap:round"/><path id="line2d_14" d="M499.32 116.88v-15.12" clip-path="url(#p67d918024a)" style="fill:none;stroke:#172033;stroke-width:2.1;stroke-linecap:round"/><path id="line2d_15" d="M499.32 101.76v-14.4" clip-path="url(#p67d918024a)" style="fill:none;stroke:#172033;stroke-width:2.1;stroke-linecap:round"/><path id="line2d_16" d="M499.32 87.36h-6.75" clip-path="url(#p67d918024a)" style="fill:none;stroke:#172033;stroke-width:2.1;stroke-linecap:round"/><path id="line2d_17" d="M499.32 87.36h6.75" clip-path="url(#p67d918024a)" style="fill:none;stroke:#172033;stroke-width:2.1;stroke-linecap:round"/><path id="line2d_18" d="M6.48 140.28h156.6" clip-path="url(#p67d918024a)" style="fill:none;stroke:#172033;stroke-width:2.1;stroke-linecap:round"/><path id="line2d_19" d="M163.08 140.28v83.52" clip-path="url(#p67d918024a)" style="fill:none;stroke:#172033;stroke-width:2.1;stroke-linecap:round"/><path id="line2d_20" d="M123.48 157.56v66.24" clip-path="url(#p67d918024a)" style="fill:none;stroke:#172033;stroke-width:2.1;stroke-linecap:round"/><path id="line2d_21" d="M123.48 157.56h13.5m12.6-9v18m0-9h13.5" clip-path="url(#p67d918024a)" style="fill:none;stroke:#dc2626;stroke-width:2.1;stroke-linecap:round"/><path id="line2d_22" d="M123.48 190.68h13.5m12.6-9v18m0-9h13.5" clip-path="url(#p67d918024a)" style="fill:none;stroke:#dc2626;stroke-width:2.1;stroke-linecap:round"/><path id="line2d_23" d="M123.48 223.8h13.5m12.6-9v18m0-9h13.5" clip-path="url(#p67d918024a)" style="fill:none;stroke:#dc2626;stroke-width:2.1;stroke-linecap:round"/><path id="line2d_24" d="M123.48 223.8H113.4" clip-path="url(#p67d918024a)" style="fill:none;stroke:#172033;stroke-width:2.1;stroke-linecap:round"/><path id="line2d_25" d="M113.4 223.8h-.9v9h-36v-18h36v9m-36 0h-.9" clip-path="url(#p67d918024a)" style="fill:none;stroke:#172033;stroke-width:2.1;stroke-linecap:round"/><path id="line2d_26" d="M75.6 223.8h-5.76" clip-path="url(#p67d918024a)" style="fill:none;stroke:#172033;stroke-width:2.1;stroke-linecap:round"/><path id="line2d_27" d="m61.2 220.2-20.16-12.6m-7.2 16.2" clip-path="url(#p67d918024a)" style="fill:none;stroke:#172033;stroke-width:2.1;stroke-linecap:round"/><path id="line2d_28" d="M33.84 223.8v-15.12" clip-path="url(#p67d918024a)" style="fill:none;stroke:#172033;stroke-width:2.1;stroke-linecap:round"/><path id="line2d_29" d="M33.84 208.68v-14.4" clip-path="url(#p67d918024a)" style="fill:none;stroke:#172033;stroke-width:2.1;stroke-linecap:round"/><path id="line2d_30" d="M33.84 194.28h-6.75" clip-path="url(#p67d918024a)" style="fill:none;stroke:#172033;stroke-width:2.1;stroke-linecap:round"/><path id="line2d_31" d="M33.84 194.28h6.75" clip-path="url(#p67d918024a)" style="fill:none;stroke:#172033;stroke-width:2.1;stroke-linecap:round"/><path id="line2d_32" d="M582.48 140.28h-156.6" clip-path="url(#p67d918024a)" style="fill:none;stroke:#172033;stroke-width:2.1;stroke-linecap:round"/><path id="line2d_33" d="M425.88 140.28v83.52" clip-path="url(#p67d918024a)" style="fill:none;stroke:#172033;stroke-width:2.1;stroke-linecap:round"/><path id="line2d_34" d="M465.48 157.56v66.24" clip-path="url(#p67d918024a)" style="fill:none;stroke:#172033;stroke-width:2.1;stroke-linecap:round"/><path id="line2d_35" d="M465.48 157.56h-13.5m-12.6 9v-18m0 9h-13.5" clip-path="url(#p67d918024a)" style="fill:none;stroke:#dc2626;stroke-width:2.1;stroke-linecap:round"/><path id="line2d_36" d="M465.48 190.68h-13.5m-12.6 9v-18m0 9h-13.5" clip-path="url(#p67d918024a)" style="fill:none;stroke:#dc2626;stroke-width:2.1;stroke-linecap:round"/><path id="line2d_37" d="M465.48 223.8h-13.5m-12.6 9v-18m0 9h-13.5" clip-path="url(#p67d918024a)" style="fill:none;stroke:#dc2626;stroke-width:2.1;stroke-linecap:round"/><path id="line2d_38" d="M465.48 223.8h10.08" clip-path="url(#p67d918024a)" style="fill:none;stroke:#172033;stroke-width:2.1;stroke-linecap:round"/><path id="line2d_39" d="M475.56 223.8h.9v-9h36v18h-36v-9m36 0h.9" clip-path="url(#p67d918024a)" style="fill:none;stroke:#172033;stroke-width:2.1;stroke-linecap:round"/><path id="line2d_40" d="M513.36 223.8h5.76" clip-path="url(#p67d918024a)" style="fill:none;stroke:#172033;stroke-width:2.1;stroke-linecap:round"/><path id="line2d_41" d="m527.76 220.2 20.16-12.6m7.2 16.2" clip-path="url(#p67d918024a)" style="fill:none;stroke:#172033;stroke-width:2.1;stroke-linecap:round"/><path id="line2d_42" d="M555.12 223.8v-15.12" clip-path="url(#p67d918024a)" style="fill:none;stroke:#172033;stroke-width:2.1;stroke-linecap:round"/><path id="line2d_43" d="M555.12 208.68v-14.4" clip-path="url(#p67d918024a)" style="fill:none;stroke:#172033;stroke-width:2.1;stroke-linecap:round"/><path id="line2d_44" d="M555.12 194.28h-6.75" clip-path="url(#p67d918024a)" style="fill:none;stroke:#172033;stroke-width:2.1;stroke-linecap:round"/><path id="line2d_45" d="M555.12 194.28h6.75" clip-path="url(#p67d918024a)" style="fill:none;stroke:#172033;stroke-width:2.1;stroke-linecap:round"/><path id="line2d_46" d="M6.48 257.28h334.8" clip-path="url(#p67d918024a)" style="fill:none;stroke:#172033;stroke-width:2.1;stroke-linecap:round"/><path id="line2d_47" d="M247.68 296.88h162" clip-path="url(#p67d918024a)" style="fill:none;stroke:#172033;stroke-width:2.1;stroke-linecap:round"/><path id="line2d_48" d="M247.68 296.88v-13.5m-9-12.6h18m-9 0v-13.5" clip-path="url(#p67d918024a)" style="fill:none;stroke:#dc2626;stroke-width:2.1;stroke-linecap:round"/><path id="line2d_49" d="M294.48 296.88v-13.5m-9-12.6h18m-9 0v-13.5" clip-path="url(#p67d918024a)" style="fill:none;stroke:#dc2626;stroke-width:2.1;stroke-linecap:round"/><path id="line2d_50" d="M341.28 296.88v-13.5m-9-12.6h18m-9 0v-13.5" clip-path="url(#p67d918024a)" style="fill:none;stroke:#dc2626;stroke-width:2.1;stroke-linecap:round"/><path id="line2d_51" d="M409.68 296.88h10.08" clip-path="url(#p67d918024a)" style="fill:none;stroke:#172033;stroke-width:2.1;stroke-linecap:round"/><path id="line2d_52" d="M419.76 296.88h.9v-9h36v18h-36v-9m36 0h.9" clip-path="url(#p67d918024a)" style="fill:none;stroke:#172033;stroke-width:2.1;stroke-linecap:round"/><path id="line2d_53" d="M457.56 296.88h5.76" clip-path="url(#p67d918024a)" style="fill:none;stroke:#172033;stroke-width:2.1;stroke-linecap:round"/><path id="line2d_54" d="m471.96 293.28 20.16-12.6m7.2 16.2" clip-path="url(#p67d918024a)" style="fill:none;stroke:#172033;stroke-width:2.1;stroke-linecap:round"/><path id="line2d_55" d="M499.32 296.88h22.32" clip-path="url(#p67d918024a)" style="fill:none;stroke:#172033;stroke-width:2.1;stroke-linecap:round"/><path id="line2d_56" d="M521.64 296.88v-14.4" clip-path="url(#p67d918024a)" style="fill:none;stroke:#172033;stroke-width:2.1;stroke-linecap:round"/><path id="line2d_57" d="M521.64 282.48h-6.75" clip-path="url(#p67d918024a)" style="fill:none;stroke:#172033;stroke-width:2.1;stroke-linecap:round"/><path id="line2d_58" d="M521.64 282.48h6.75" clip-path="url(#p67d918024a)" style="fill:none;stroke:#172033;stroke-width:2.1;stroke-linecap:round"/><path id="line2d_59" d="M6.48 313.08h156.6" clip-path="url(#p67d918024a)" style="fill:none;stroke:#172033;stroke-width:2.1;stroke-linecap:round"/><path id="line2d_60" d="M163.08 313.08v83.52" clip-path="url(#p67d918024a)" style="fill:none;stroke:#172033;stroke-width:2.1;stroke-linecap:round"/><path id="line2d_61" d="M123.48 330.36v66.24" clip-path="url(#p67d918024a)" style="fill:none;stroke:#172033;stroke-width:2.1;stroke-linecap:round"/><path id="line2d_62" d="M123.48 330.36h13.5m12.6-9v18m0-9h13.5" clip-path="url(#p67d918024a)" style="fill:none;stroke:#dc2626;stroke-width:2.1;stroke-linecap:round"/><path id="line2d_63" d="M123.48 363.48h13.5m12.6-9v18m0-9h13.5" clip-path="url(#p67d918024a)" style="fill:none;stroke:#dc2626;stroke-width:2.1;stroke-linecap:round"/><path id="line2d_64" d="M123.48 396.6h13.5m12.6-9v18m0-9h13.5" clip-path="url(#p67d918024a)" style="fill:none;stroke:#dc2626;stroke-width:2.1;stroke-linecap:round"/><path id="line2d_65" d="M123.48 396.6H113.4" clip-path="url(#p67d918024a)" style="fill:none;stroke:#172033;stroke-width:2.1;stroke-linecap:round"/><path id="line2d_66" d="M113.4 396.6h-.9v9h-36v-18h36v9m-36 0h-.9" clip-path="url(#p67d918024a)" style="fill:none;stroke:#172033;stroke-width:2.1;stroke-linecap:round"/><path id="line2d_67" d="M75.6 396.6h-5.76" clip-path="url(#p67d918024a)" style="fill:none;stroke:#172033;stroke-width:2.1;stroke-linecap:round"/><path id="line2d_68" d="m61.2 393-20.16-12.6m-7.2 16.2" clip-path="url(#p67d918024a)" style="fill:none;stroke:#172033;stroke-width:2.1;stroke-linecap:round"/><path id="line2d_69" d="M33.84 396.6v-15.12" clip-path="url(#p67d918024a)" style="fill:none;stroke:#172033;stroke-width:2.1;stroke-linecap:round"/><path id="line2d_70" d="M33.84 381.48v-14.4" clip-path="url(#p67d918024a)" style="fill:none;stroke:#172033;stroke-width:2.1;stroke-linecap:round"/><path id="line2d_71" d="M33.84 367.08h-6.75" clip-path="url(#p67d918024a)" style="fill:none;stroke:#172033;stroke-width:2.1;stroke-linecap:round"/><path id="line2d_72" d="M33.84 367.08h6.75" clip-path="url(#p67d918024a)" style="fill:none;stroke:#172033;stroke-width:2.1;stroke-linecap:round"/><path id="line2d_73" d="M582.48 313.08h-156.6" clip-path="url(#p67d918024a)" style="fill:none;stroke:#172033;stroke-width:2.1;stroke-linecap:round"/><path id="line2d_74" d="M425.88 313.08v83.52" clip-path="url(#p67d918024a)" style="fill:none;stroke:#172033;stroke-width:2.1;stroke-linecap:round"/><path id="line2d_75" d="M465.48 330.36v66.24" clip-path="url(#p67d918024a)" style="fill:none;stroke:#172033;stroke-width:2.1;stroke-linecap:round"/><path id="line2d_76" d="M465.48 330.36h-13.5m-12.6 9v-18m0 9h-13.5" clip-path="url(#p67d918024a)" style="fill:none;stroke:#dc2626;stroke-width:2.1;stroke-linecap:round"/><path id="line2d_77" d="M465.48 363.48h-13.5m-12.6 9v-18m0 9h-13.5" clip-path="url(#p67d918024a)" style="fill:none;stroke:#dc2626;stroke-width:2.1;stroke-linecap:round"/><path id="line2d_78" d="M465.48 396.6h-13.5m-12.6 9v-18m0 9h-13.5" clip-path="url(#p67d918024a)" style="fill:none;stroke:#dc2626;stroke-width:2.1;stroke-linecap:round"/><path id="line2d_79" d="M465.48 396.6h10.08" clip-path="url(#p67d918024a)" style="fill:none;stroke:#172033;stroke-width:2.1;stroke-linecap:round"/><path id="line2d_80" d="M475.56 396.6h.9v-9h36v18h-36v-9m36 0h.9" clip-path="url(#p67d918024a)" style="fill:none;stroke:#172033;stroke-width:2.1;stroke-linecap:round"/><path id="line2d_81" d="M513.36 396.6h5.76" clip-path="url(#p67d918024a)" style="fill:none;stroke:#172033;stroke-width:2.1;stroke-linecap:round"/><path id="line2d_82" d="m527.76 393 20.16-12.6m7.2 16.2" clip-path="url(#p67d918024a)" style="fill:none;stroke:#172033;stroke-width:2.1;stroke-linecap:round"/><path id="line2d_83" d="M555.12 396.6v-15.12" clip-path="url(#p67d918024a)" style="fill:none;stroke:#172033;stroke-width:2.1;stroke-linecap:round"/><path id="line2d_84" d="M555.12 381.48v-14.4" clip-path="url(#p67d918024a)" style="fill:none;stroke:#172033;stroke-width:2.1;stroke-linecap:round"/><path id="line2d_85" d="M555.12 367.08h-6.75" clip-path="url(#p67d918024a)" style="fill:none;stroke:#172033;stroke-width:2.1;stroke-linecap:round"/><path id="line2d_86" d="M555.12 367.08h6.75" clip-path="url(#p67d918024a)" style="fill:none;stroke:#172033;stroke-width:2.1;stroke-linecap:round"/><path id="line2d_87" d="M582.48 431.88h-136.8" clip-path="url(#p67d918024a)" style="fill:none;stroke:#172033;stroke-width:2.1;stroke-linecap:round"/><path id="line2d_88" d="M445.68 460.68v-8.1m-9-12.6h18m-9 0v-8.1" clip-path="url(#p67d918024a)" style="fill:none;stroke:#dc2626;stroke-width:2.1;stroke-linecap:round"/><path id="line2d_89" d="M445.68 460.68h10.08" clip-path="url(#p67d918024a)" style="fill:none;stroke:#172033;stroke-width:2.1;stroke-linecap:round"/><path id="line2d_90" d="M455.76 460.68h.9v-9h36v18h-36v-9m36 0h.9" clip-path="url(#p67d918024a)" style="fill:none;stroke:#172033;stroke-width:2.1;stroke-linecap:round"/><path id="line2d_91" d="M493.56 460.68h5.76" clip-path="url(#p67d918024a)" style="fill:none;stroke:#172033;stroke-width:2.1;stroke-linecap:round"/><path id="line2d_92" d="m507.96 457.08 20.16-12.6m7.2 16.2" clip-path="url(#p67d918024a)" style="fill:none;stroke:#172033;stroke-width:2.1;stroke-linecap:round"/><path id="line2d_93" d="M535.32 460.68h22.32" clip-path="url(#p67d918024a)" style="fill:none;stroke:#172033;stroke-width:2.1;stroke-linecap:round"/><path id="line2d_94" d="M557.64 460.68v-14.4" clip-path="url(#p67d918024a)" style="fill:none;stroke:#172033;stroke-width:2.1;stroke-linecap:round"/><path id="line2d_95" d="M557.64 446.28h-6.75" clip-path="url(#p67d918024a)" style="fill:none;stroke:#172033;stroke-width:2.1;stroke-linecap:round"/><path id="line2d_96" d="M557.64 446.28h6.75" clip-path="url(#p67d918024a)" style="fill:none;stroke:#172033;stroke-width:2.1;stroke-linecap:round"/><path id="line2d_97" d="M6.48 480.48h334.8" clip-path="url(#p67d918024a)" style="fill:none;stroke:#172033;stroke-width:2.1;stroke-linecap:round"/><path id="line2d_98" d="M247.68 520.08h162" clip-path="url(#p67d918024a)" style="fill:none;stroke:#172033;stroke-width:2.1;stroke-linecap:round"/><path id="line2d_99" d="M247.68 520.08v-13.5m-9-12.6h18m-9 0v-13.5" clip-path="url(#p67d918024a)" style="fill:none;stroke:#dc2626;stroke-width:2.1;stroke-linecap:round"/><path id="line2d_100" d="M294.48 520.08v-13.5m-9-12.6h18m-9 0v-13.5" clip-path="url(#p67d918024a)" style="fill:none;stroke:#dc2626;stroke-width:2.1;stroke-linecap:round"/><path id="line2d_101" d="M341.28 520.08v-13.5m-9-12.6h18m-9 0v-13.5" clip-path="url(#p67d918024a)" style="fill:none;stroke:#dc2626;stroke-width:2.1;stroke-linecap:round"/><path id="line2d_102" d="M409.68 520.08h10.08" clip-path="url(#p67d918024a)" style="fill:none;stroke:#172033;stroke-width:2.1;stroke-linecap:round"/><path id="line2d_103" d="M419.76 520.08h.9v-9h36v18h-36v-9m36 0h.9" clip-path="url(#p67d918024a)" style="fill:none;stroke:#172033;stroke-width:2.1;stroke-linecap:round"/><path id="line2d_104" d="M457.56 520.08h5.76" clip-path="url(#p67d918024a)" style="fill:none;stroke:#172033;stroke-width:2.1;stroke-linecap:round"/><path id="line2d_105" d="m471.96 516.48 20.16-12.6m7.2 16.2" clip-path="url(#p67d918024a)" style="fill:none;stroke:#172033;stroke-width:2.1;stroke-linecap:round"/><path id="line2d_106" d="M499.32 520.08v-15.12" clip-path="url(#p67d918024a)" style="fill:none;stroke:#172033;stroke-width:2.1;stroke-linecap:round"/><path id="line2d_107" d="M499.32 504.96v-14.4" clip-path="url(#p67d918024a)" style="fill:none;stroke:#172033;stroke-width:2.1;stroke-linecap:round"/><path id="line2d_108" d="M499.32 490.56h-6.75" clip-path="url(#p67d918024a)" style="fill:none;stroke:#172033;stroke-width:2.1;stroke-linecap:round"/><path id="line2d_109" d="M499.32 490.56h6.75" clip-path="url(#p67d918024a)" style="fill:none;stroke:#172033;stroke-width:2.1;stroke-linecap:round"/><g id="text_1" style="fill:#172033" transform="matrix(.12 0 0 -.12 277.122 13.991)"><defs><path id="DejaVuSans-47" d="M3809 666v1253H2778v519h1656V434q-365-259-806-392-440-133-940-133-1094 0-1712 639-617 640-617 1780 0 1144 617 1783 618 639 1712 639 456 0 867-113 411-112 758-331v-672q-350 297-744 447t-828 150q-857 0-1287-478-429-478-429-1425 0-944 429-1422 430-478 1287-478 334 0 596 58 263 58 472 180" transform="scale(.01563)"/><path id="DejaVuSans-4e" d="M628 4666h850L3547 763v3903h612V0h-850L1241 3903V0H628z" transform="scale(.01563)"/><path id="DejaVuSans-44" d="M1259 4147V519h763q966 0 1414 437 448 438 448 1382 0 937-448 1373t-1414 436zm-631 519h1297q1356 0 1990-564 635-564 635-1764 0-1207-638-1773Q3275 0 1925 0H628z" transform="scale(.01563)"/></defs><use xlink:href="#DejaVuSans-47"/><use xlink:href="#DejaVuSans-4e" transform="translate(77.49)"/><use xlink:href="#DejaVuSans-44" transform="translate(152.295)"/></g><g id="text_2" style="fill:#172033" transform="matrix(.11 0 0 -.11 244.646 60.515)"><defs><path id="DejaVuSans-43" d="M4122 4306v-665q-319 297-680 443-361 147-767 147-800 0-1225-489t-425-1414q0-922 425-1411t1225-489q406 0 767 147t680 444V359q-331-225-702-338-370-112-782-112-1060 0-1670 648-609 649-609 1771 0 1125 609 1773 610 649 1670 649 418 0 788-111 371-111 696-333" transform="scale(.01563)"/><path id="DejaVuSans-c1" d="m2188 4044-857-2322h1716zm-357 622h716L4325 0h-656l-425 1197H1141L716 0H50zm525 1255h578l-712-825h-479z" transform="scale(.01563)"/><path id="DejaVuSans-54" d="M-19 4666h3947v-532H2272V0h-634v4134H-19z" transform="scale(.01563)"/><path id="DejaVuSans-4f" d="M2522 4238q-688 0-1093-513-404-512-404-1397 0-881 404-1394 405-512 1093-512 687 0 1089 512 402 513 402 1394 0 885-402 1397-402 513-1089 513m0 512q981 0 1568-658 588-658 588-1764 0-1103-588-1761Q3503-91 2522-91q-984 0-1574 656-589 657-589 1763t589 1764q590 658 1574 658" transform="scale(.01563)"/><path id="DejaVuSans-4d" d="M628 4666h941l1190-3175 1197 3175h941V0h-616v4097L3078 897h-634L1241 4097V0H628z" transform="scale(.01563)"/><path id="DejaVuSans-da" d="M556 4666h635V1831q0-750 271-1080 272-329 882-329 606 0 878 329 272 330 272 1080v2835h634V1753q0-912-452-1378Q3225-91 2344-91q-885 0-1337 466-451 466-451 1378zm1960 1255h578l-712-825h-479z" transform="scale(.01563)"/></defs><use xlink:href="#DejaVuSans-43"/><use xlink:href="#DejaVuSans-c1" transform="translate(69.824)"/><use xlink:href="#DejaVuSans-54" transform="translate(130.482)"/><use xlink:href="#DejaVuSans-4f" transform="translate(191.566)"/><use xlink:href="#DejaVuSans-44" transform="translate(270.277)"/><use xlink:href="#DejaVuSans-4f" transform="translate(347.28)"/><use xlink:href="#DejaVuSans-43" transform="translate(457.777)"/><use xlink:href="#DejaVuSans-4f" transform="translate(527.602)"/><use xlink:href="#DejaVuSans-4d" transform="translate(606.313)"/><use xlink:href="#DejaVuSans-da" transform="translate(692.592)"/><use xlink:href="#DejaVuSans-4e" transform="translate(765.785)"/></g><g id="text_3" style="fill:#172033" transform="matrix(.09 0 0 -.09 432.877 102.048)"><defs><path id="DejaVuSans-52" d="M2841 2188q203-69 395-294t386-619L4263 0h-679l-596 1197q-232 469-449 622t-592 153h-688V0H628v4666h1425q800 0 1194-335 394-334 394-1009 0-441-205-732-205-290-595-402M1259 4147V2491h794q456 0 689 211t233 620-233 617-689 208z" transform="scale(.01563)"/><path id="DejaVuSans-61" d="M2194 1759q-697 0-966-159t-269-544q0-306 202-486 202-179 548-179 479 0 768 339t289 901v128zm1147 238V0h-575v531q-197-318-491-470T1556-91q-537 0-855 302-317 302-317 808 0 590 395 890 396 300 1180 300h807v57q0 397-261 614t-733 217q-300 0-585-72-284-72-546-216v532q315 122 612 182 297 61 578 61 760 0 1135-394 375-393 375-1193" transform="scale(.01563)"/></defs><use xlink:href="#DejaVuSans-52"/><use xlink:href="#DejaVuSans-61" transform="translate(67.232)"/></g><use xlink:href="#DejaVuSans-61" id="text_4" style="fill:#172033" transform="matrix(.11 0 0 -.11 463.55 108.395)"/><path id="patch_46" d="M467.64 121.2a4.32 4.32 0 1 0 0-8.64 4.32 4.32 0 0 0 0 8.64z" clip-path="url(#p67d918024a)" style="fill:#fff;stroke:#172033;stroke-width:2.1;stroke-linejoin:miter"/><path id="patch_47" d="M495 121.2a4.32 4.32 0 1 0 0-8.64 4.32 4.32 0 0 0 0 8.64z" clip-path="url(#p67d918024a)" style="fill:#fff;stroke:#172033;stroke-width:2.1;stroke-linejoin:miter"/><g id="text_5" style="fill:#172033" transform="matrix(.09 0 0 -.09 489.957 82.608)"><defs><path id="DejaVuSans-56" d="M1831 0 50 4666h659L2188 738l1481 3928h656L2547 0z" transform="scale(.01563)"/></defs><use xlink:href="#DejaVuSans-56"/><use xlink:href="#DejaVuSans-43" transform="translate(68.408)"/><use xlink:href="#DejaVuSans-43" transform="translate(138.232)"/></g><g id="text_6" style="fill:#172033" transform="matrix(.09 0 0 -.09 89.79 208.968)"><defs><path id="DejaVuSans-66" d="M2375 4863v-479h-550q-309 0-430-125-120-125-120-450v-309h947v-447h-947V0H697v3053H147v447h550v244q0 584 272 851 272 268 862 268z" transform="scale(.01563)"/></defs><use xlink:href="#DejaVuSans-52"/><use xlink:href="#DejaVuSans-66" transform="translate(69.482)"/></g><use xlink:href="#DejaVuSans-66" id="text_7" style="fill:#172033" transform="matrix(.11 0 0 -.11 64.304 218.195)"/><path id="patch_48" d="M65.52 228.12a4.32 4.32 0 1 0 0-8.64 4.32 4.32 0 0 0 0 8.64z" clip-path="url(#p67d918024a)" style="fill:#fff;stroke:#172033;stroke-width:2.1;stroke-linejoin:miter"/><path id="patch_49" d="M38.16 228.12a4.32 4.32 0 1 0 0-8.64 4.32 4.32 0 0 0 0 8.64z" clip-path="url(#p67d918024a)" style="fill:#fff;stroke:#172033;stroke-width:2.1;stroke-linejoin:miter"/><g id="text_8" style="fill:#172033" transform="matrix(.09 0 0 -.09 24.477 189.528)"><use xlink:href="#DejaVuSans-56"/><use xlink:href="#DejaVuSans-43" transform="translate(68.408)"/><use xlink:href="#DejaVuSans-43" transform="translate(138.232)"/></g><g id="text_9" style="fill:#172033" transform="matrix(.09 0 0 -.09 488.476 208.968)"><defs><path id="DejaVuSans-62" d="M3116 1747q0 634-261 995t-717 361q-457 0-718-361t-261-995 261-995 718-361q456 0 717 361t261 995M1159 2969q182 312 458 463 277 152 661 152 638 0 1036-506 399-506 399-1331T3314 415Q2916-91 2278-91q-384 0-661 152-276 152-458 464V0H581v4863h578z" transform="scale(.01563)"/></defs><use xlink:href="#DejaVuSans-52"/><use xlink:href="#DejaVuSans-62" transform="translate(69.482)"/></g><use xlink:href="#DejaVuSans-62" id="text_10" style="fill:#172033" transform="matrix(.11 0 0 -.11 519.228 215.315)"/><path id="patch_50" d="M523.44 228.12a4.32 4.32 0 1 0 0-8.64 4.32 4.32 0 0 0 0 8.64z" clip-path="url(#p67d918024a)" style="fill:#fff;stroke:#172033;stroke-width:2.1;stroke-linejoin:miter"/><path id="patch_51" d="M550.8 228.12a4.32 4.32 0 1 0 0-8.64 4.32 4.32 0 0 0 0 8.64z" clip-path="url(#p67d918024a)" style="fill:#fff;stroke:#172033;stroke-width:2.1;stroke-linejoin:miter"/><g id="text_11" style="fill:#172033" transform="matrix(.09 0 0 -.09 545.757 189.528)"><use xlink:href="#DejaVuSans-56"/><use xlink:href="#DejaVuSans-43" transform="translate(68.408)"/><use xlink:href="#DejaVuSans-43" transform="translate(138.232)"/></g><g id="text_12" style="fill:#172033" transform="matrix(.09 0 0 -.09 432.676 282.048)"><defs><path id="DejaVuSans-67" d="M2906 1791q0 625-258 968-257 344-723 344-462 0-720-344-258-343-258-968 0-622 258-966t720-344q466 0 723 344 258 344 258 966m575-1357q0-893-397-1329-396-436-1215-436-303 0-572 45t-522 139v559q253-137 500-202 247-66 503-66 566 0 847 295t281 892v285q-178-310-456-463T1784 0Q1141 0 747 490 353 981 353 1791q0 812 394 1302 394 491 1037 491 388 0 666-153t456-462v531h575z" transform="scale(.01563)"/></defs><use xlink:href="#DejaVuSans-52"/><use xlink:href="#DejaVuSans-67" transform="translate(69.482)"/></g><use xlink:href="#DejaVuSans-67" id="text_13" style="fill:#172033" transform="matrix(.11 0 0 -.11 463.428 288.395)"/><path id="patch_52" d="M467.64 301.2a4.32 4.32 0 1 0 0-8.64 4.32 4.32 0 0 0 0 8.64z" clip-path="url(#p67d918024a)" style="fill:#fff;stroke:#172033;stroke-width:2.1;stroke-linejoin:miter"/><path id="patch_53" d="M495 301.2a4.32 4.32 0 1 0 0-8.64 4.32 4.32 0 0 0 0 8.64z" clip-path="url(#p67d918024a)" style="fill:#fff;stroke:#172033;stroke-width:2.1;stroke-linejoin:miter"/><g id="text_14" style="fill:#172033" transform="matrix(.09 0 0 -.09 512.277 277.728)"><use xlink:href="#DejaVuSans-56"/><use xlink:href="#DejaVuSans-43" transform="translate(68.408)"/><use xlink:href="#DejaVuSans-43" transform="translate(138.232)"/></g><g id="text_15" style="fill:#172033" transform="matrix(.09 0 0 -.09 88.807 381.768)"><defs><path id="DejaVuSans-65" d="M3597 1894v-281H953q38-594 358-905t892-311q331 0 642 81t618 244V178Q3153 47 2828-22t-659-69q-838 0-1327 487-489 488-489 1320 0 859 464 1363 464 505 1252 505 706 0 1117-455 411-454 411-1235m-575 169q-6 471-264 752-258 282-683 282-481 0-770-272t-333-766z" transform="scale(.01563)"/></defs><use xlink:href="#DejaVuSans-52"/><use xlink:href="#DejaVuSans-65" transform="translate(64.982)"/></g><use xlink:href="#DejaVuSans-65" id="text_16" style="fill:#172033" transform="matrix(.11 0 0 -.11 62.856 390.995)"/><path id="patch_54" d="M65.52 400.92a4.32 4.32 0 1 0 0-8.64 4.32 4.32 0 0 0 0 8.64z" clip-path="url(#p67d918024a)" style="fill:#fff;stroke:#172033;stroke-width:2.1;stroke-linejoin:miter"/><path id="patch_55" d="M38.16 400.92a4.32 4.32 0 1 0 0-8.64 4.32 4.32 0 0 0 0 8.64z" clip-path="url(#p67d918024a)" style="fill:#fff;stroke:#172033;stroke-width:2.1;stroke-linejoin:miter"/><g id="text_17" style="fill:#172033" transform="matrix(.09 0 0 -.09 24.477 362.328)"><use xlink:href="#DejaVuSans-56"/><use xlink:href="#DejaVuSans-43" transform="translate(68.408)"/><use xlink:href="#DejaVuSans-43" transform="translate(138.232)"/></g><g id="text_18" style="fill:#172033" transform="matrix(.09 0 0 -.09 488.859 381.768)"><defs><path id="DejaVuSans-63" d="M3122 3366v-538q-244 135-489 202t-495 67q-560 0-870-355-309-354-309-995t309-996q310-354 870-354 250 0 495 67t489 202V134Q2881 22 2623-34q-257-57-548-57-791 0-1257 497-465 497-465 1341 0 856 470 1346 471 491 1290 491 265 0 518-55 253-54 491-163" transform="scale(.01563)"/></defs><use xlink:href="#DejaVuSans-52"/><use xlink:href="#DejaVuSans-63" transform="translate(69.482)"/></g><use xlink:href="#DejaVuSans-63" id="text_19" style="fill:#172033" transform="matrix(.11 0 0 -.11 519.696 388.115)"/><path id="patch_56" d="M523.44 400.92a4.32 4.32 0 1 0 0-8.64 4.32 4.32 0 0 0 0 8.64z" clip-path="url(#p67d918024a)" style="fill:#fff;stroke:#172033;stroke-width:2.1;stroke-linejoin:miter"/><path id="patch_57" d="M550.8 400.92a4.32 4.32 0 1 0 0-8.64 4.32 4.32 0 0 0 0 8.64z" clip-path="url(#p67d918024a)" style="fill:#fff;stroke:#172033;stroke-width:2.1;stroke-linejoin:miter"/><g id="text_20" style="fill:#172033" transform="matrix(.09 0 0 -.09 545.757 362.328)"><use xlink:href="#DejaVuSans-56"/><use xlink:href="#DejaVuSans-43" transform="translate(68.408)"/><use xlink:href="#DejaVuSans-43" transform="translate(138.232)"/></g><g id="text_21" style="fill:#172033" transform="matrix(.09 0 0 -.09 465.82 445.848)"><defs><path id="DejaVuSans-64" d="M2906 2969v1894h575V0h-575v525q-181-312-458-464-276-152-664-152-634 0-1033 506-398 507-398 1332t398 1331q399 506 1033 506 388 0 664-152 277-151 458-463M947 1747q0-634 261-995t717-361 718 361q263 361 263 995t-263 995q-262 361-718 361t-717-361-261-995" transform="scale(.01563)"/><path id="DejaVuSans-70" d="M1159 525v-1856H581v4831h578v-531q182 312 458 463 277 152 661 152 638 0 1036-506 399-506 399-1331T3314 415Q2916-91 2278-91q-384 0-661 152-276 152-458 464m1957 1222q0 634-261 995t-717 361q-457 0-718-361t-261-995 261-995 718-361q456 0 717 361t261 995" transform="scale(.01563)"/></defs><use xlink:href="#DejaVuSans-52"/><use xlink:href="#DejaVuSans-64" transform="translate(69.482)"/><use xlink:href="#DejaVuSans-70" transform="translate(132.959)"/></g><g id="text_22" style="fill:#172033" transform="matrix(.11 0 0 -.11 495.937 452.195)"><use xlink:href="#DejaVuSans-64"/><use xlink:href="#DejaVuSans-70" transform="translate(63.477)"/></g><path id="patch_58" d="M503.64 465a4.32 4.32 0 1 0 0-8.64 4.32 4.32 0 0 0 0 8.64z" clip-path="url(#p67d918024a)" style="fill:#fff;stroke:#172033;stroke-width:2.1;stroke-linejoin:miter"/><path id="patch_59" d="M531 465a4.32 4.32 0 1 0 0-8.64 4.32 4.32 0 0 0 0 8.64z" clip-path="url(#p67d918024a)" style="fill:#fff;stroke:#172033;stroke-width:2.1;stroke-linejoin:miter"/><g id="text_23" style="fill:#172033" transform="matrix(.09 0 0 -.09 548.277 441.528)"><use xlink:href="#DejaVuSans-56"/><use xlink:href="#DejaVuSans-43" transform="translate(68.408)"/><use xlink:href="#DejaVuSans-43" transform="translate(138.232)"/></g><g id="text_24" style="fill:#dc2626" transform="matrix(.1 0 0 -.1 359.694 445.44)"><defs><path id="DejaVuSans-50" d="M1259 4147V2394h794q441 0 681 228 241 228 241 650 0 419-241 647-240 228-681 228zm-631 519h1425q785 0 1186-355 402-355 402-1039 0-691-402-1044-401-353-1186-353h-794V0H628z" transform="scale(.01563)"/><path id="DejaVuSans-75" d="M544 1381v2119h575V1403q0-497 193-746 194-248 582-248 465 0 735 297 271 297 271 810v1984h575V0h-575v538q-209-319-486-474-276-155-642-155-603 0-916 375-312 375-312 1097m1447 2203" transform="scale(.01563)"/><path id="DejaVuSans-6e" d="M3513 2113V0h-575v2094q0 497-194 743-194 247-581 247-466 0-735-297-269-296-269-809V0H581v3500h578v-544q207 316 486 472 280 156 646 156 603 0 912-373 310-373 310-1098" transform="scale(.01563)"/><path id="DejaVuSans-74" d="M1172 4494v-994h1184v-447H1172V1153q0-428 117-550t477-122h590V0h-590q-666 0-919 248-253 249-253 905v1900H172v447h422v994z" transform="scale(.01563)"/><path id="DejaVuSans-6f" d="M1959 3097q-462 0-731-361t-269-989 267-989q268-361 733-361 460 0 728 362 269 363 269 988 0 622-269 986-268 364-728 364m0 487q750 0 1178-488 429-487 429-1349 0-859-429-1349Q2709-91 1959-91q-753 0-1180 489-426 490-426 1349 0 862 426 1349 427 488 1180 488" transform="scale(.01563)"/><path id="DejaVuSans-69" d="M603 3500h575V0H603zm0 1363h575v-729H603z" transform="scale(.01563)"/><path id="DejaVuSans-6d" d="M3328 2828q216 388 516 572t706 184q547 0 844-383 297-382 297-1088V0h-578v2094q0 503-179 746-178 244-543 244-447 0-707-297-259-296-259-809V0h-578v2094q0 506-178 748t-550 242q-441 0-701-298-259-298-259-808V0H581v3500h578v-544q197 322 472 475t653 153q382 0 649-194 267-193 395-562" transform="scale(.01563)"/><path id="DejaVuSans-6c" d="M603 4863h575V0H603z" transform="scale(.01563)"/></defs><use xlink:href="#DejaVuSans-50"/><use xlink:href="#DejaVuSans-75" transform="translate(58.553)"/><use xlink:href="#DejaVuSans-6e" transform="translate(121.932)"/><use xlink:href="#DejaVuSans-74" transform="translate(185.31)"/><use xlink:href="#DejaVuSans-6f" transform="translate(224.52)"/><use xlink:href="#DejaVuSans-64" transform="translate(317.488)"/><use xlink:href="#DejaVuSans-65" transform="translate(380.965)"/><use xlink:href="#DejaVuSans-63" transform="translate(442.488)"/><use xlink:href="#DejaVuSans-69" transform="translate(497.469)"/><use xlink:href="#DejaVuSans-6d" transform="translate(525.252)"/><use xlink:href="#DejaVuSans-61" transform="translate(622.664)"/><use xlink:href="#DejaVuSans-6c" transform="translate(683.943)"/></g><g id="text_25" style="fill:#172033" transform="matrix(.09 0 0 -.09 432.676 505.248)"><use xlink:href="#DejaVuSans-52"/><use xlink:href="#DejaVuSans-64" transform="translate(69.482)"/></g><use xlink:href="#DejaVuSans-64" id="text_26" style="fill:#172033" transform="matrix(.11 0 0 -.11 463.428 511.595)"/><path id="patch_60" d="M467.64 524.4a4.32 4.32 0 1 0 0-8.64 4.32 4.32 0 0 0 0 8.64z" clip-path="url(#p67d918024a)" style="fill:#fff;stroke:#172033;stroke-width:2.1;stroke-linejoin:miter"/><path id="patch_61" d="M495 524.4a4.32 4.32 0 1 0 0-8.64 4.32 4.32 0 0 0 0 8.64z" clip-path="url(#p67d918024a)" style="fill:#fff;stroke:#172033;stroke-width:2.1;stroke-linejoin:miter"/><g id="text_27" style="fill:#172033" transform="matrix(.09 0 0 -.09 489.957 485.808)"><use xlink:href="#DejaVuSans-56"/><use xlink:href="#DejaVuSans-43" transform="translate(68.408)"/><use xlink:href="#DejaVuSans-43" transform="translate(138.232)"/></g><g id="text_28" style="fill:#dc2626" transform="matrix(.11 0 0 -.11 257.645 130.715)"><defs><path id="DejaVuSans-53" d="M3425 4513v-616q-359 172-678 256-319 85-616 85-515 0-795-200t-280-569q0-310 186-468 186-157 705-254l381-78q706-135 1042-474t336-907q0-679-455-1029Q2797-91 1919-91q-331 0-705 75-373 75-773 222v650q384-215 753-325 369-109 725-109 540 0 834 212 294 213 294 607 0 343-211 537t-692 291l-385 75q-706 140-1022 440-315 300-315 835 0 619 436 975t1201 356q329 0 669-60 341-59 697-177" transform="scale(.01563)"/></defs><use xlink:href="#DejaVuSans-53"/><use xlink:href="#DejaVuSans-65" transform="translate(63.477)"/><use xlink:href="#DejaVuSans-67" transform="translate(125)"/><use xlink:href="#DejaVuSans-6d" transform="translate(188.477)"/><use xlink:href="#DejaVuSans-65" transform="translate(285.889)"/><use xlink:href="#DejaVuSans-6e" transform="translate(347.412)"/><use xlink:href="#DejaVuSans-74" transform="translate(410.791)"/><use xlink:href="#DejaVuSans-6f" transform="translate(450)"/><use xlink:href="#DejaVuSans-61" transform="translate(542.969)"/></g><g id="text_29" style="fill:#dc2626" transform="matrix(0 -.11 -.11 0 401.915 220.436)"><use xlink:href="#DejaVuSans-53"/><use xlink:href="#DejaVuSans-65" transform="translate(63.477)"/><use xlink:href="#DejaVuSans-67" transform="translate(125)"/><use xlink:href="#DejaVuSans-6d" transform="translate(188.477)"/><use xlink:href="#DejaVuSans-65" transform="translate(285.889)"/><use xlink:href="#DejaVuSans-6e" transform="translate(347.412)"/><use xlink:href="#DejaVuSans-74" transform="translate(410.791)"/><use xlink:href="#DejaVuSans-6f" transform="translate(450)"/><use xlink:href="#DejaVuSans-62" transform="translate(542.969)"/></g><g id="text_30" style="fill:#dc2626" transform="matrix(0 -.11 -.11 0 401.915 392.768)"><use xlink:href="#DejaVuSans-53"/><use xlink:href="#DejaVuSans-65" transform="translate(63.477)"/><use xlink:href="#DejaVuSans-67" transform="translate(125)"/><use xlink:href="#DejaVuSans-6d" transform="translate(188.477)"/><use xlink:href="#DejaVuSans-65" transform="translate(285.889)"/><use xlink:href="#DejaVuSans-6e" transform="translate(347.412)"/><use xlink:href="#DejaVuSans-74" transform="translate(410.791)"/><use xlink:href="#DejaVuSans-6f" transform="translate(450)"/><use xlink:href="#DejaVuSans-63" transform="translate(542.969)"/></g><g id="text_31" style="fill:#dc2626" transform="matrix(.11 0 0 -.11 257.524 465.515)"><use xlink:href="#DejaVuSans-53"/><use xlink:href="#DejaVuSans-65" transform="translate(63.477)"/><use xlink:href="#DejaVuSans-67" transform="translate(125)"/><use xlink:href="#DejaVuSans-6d" transform="translate(188.477)"/><use xlink:href="#DejaVuSans-65" transform="translate(285.889)"/><use xlink:href="#DejaVuSans-6e" transform="translate(347.412)"/><use xlink:href="#DejaVuSans-74" transform="translate(410.791)"/><use xlink:href="#DejaVuSans-6f" transform="translate(450)"/><use xlink:href="#DejaVuSans-64" transform="translate(542.969)"/></g><g id="text_32" style="fill:#dc2626" transform="matrix(0 -.11 -.11 0 185.915 393.128)"><use xlink:href="#DejaVuSans-53"/><use xlink:href="#DejaVuSans-65" transform="translate(63.477)"/><use xlink:href="#DejaVuSans-67" transform="translate(125)"/><use xlink:href="#DejaVuSans-6d" transform="translate(188.477)"/><use xlink:href="#DejaVuSans-65" transform="translate(285.889)"/><use xlink:href="#DejaVuSans-6e" transform="translate(347.412)"/><use xlink:href="#DejaVuSans-74" transform="translate(410.791)"/><use xlink:href="#DejaVuSans-6f" transform="translate(450)"/><use xlink:href="#DejaVuSans-65" transform="translate(542.969)"/></g><g id="text_33" style="fill:#dc2626" transform="matrix(0 -.11 -.11 0 185.915 218.88)"><use xlink:href="#DejaVuSans-53"/><use xlink:href="#DejaVuSans-65" transform="translate(63.477)"/><use xlink:href="#DejaVuSans-67" transform="translate(125)"/><use xlink:href="#DejaVuSans-6d" transform="translate(188.477)"/><use xlink:href="#DejaVuSans-65" transform="translate(285.889)"/><use xlink:href="#DejaVuSans-6e" transform="translate(347.412)"/><use xlink:href="#DejaVuSans-74" transform="translate(410.791)"/><use xlink:href="#DejaVuSans-6f" transform="translate(450)"/><use xlink:href="#DejaVuSans-66" transform="translate(542.969)"/></g><g id="text_34" style="fill:#dc2626" transform="matrix(.11 0 0 -.11 257.524 310.715)"><use xlink:href="#DejaVuSans-53"/><use xlink:href="#DejaVuSans-65" transform="translate(63.477)"/><use xlink:href="#DejaVuSans-67" transform="translate(125)"/><use xlink:href="#DejaVuSans-6d" transform="translate(188.477)"/><use xlink:href="#DejaVuSans-65" transform="translate(285.889)"/><use xlink:href="#DejaVuSans-6e" transform="translate(347.412)"/><use xlink:href="#DejaVuSans-74" transform="translate(410.791)"/><use xlink:href="#DejaVuSans-6f" transform="translate(450)"/><use xlink:href="#DejaVuSans-67" transform="translate(542.969)"/></g><path id="patch_62" d="M6.48 79.08a1.8 1.8 0 1 0 0-3.6 1.8 1.8 0 0 0 0 3.6z" clip-path="url(#p67d918024a)" style="fill:#172033;stroke:#172033;stroke-width:2.1;stroke-linejoin:miter"/><path id="patch_63" d="M247.68 79.08a1.8 1.8 0 1 0 0-3.6 1.8 1.8 0 0 0 0 3.6z" clip-path="url(#p67d918024a)" style="fill:#172033;stroke:#172033;stroke-width:2.1;stroke-linejoin:miter"/><path id="patch_64" d="M6.48 142.08a1.8 1.8 0 1 0 0-3.6 1.8 1.8 0 0 0 0 3.6z" clip-path="url(#p67d918024a)" style="fill:#172033;stroke:#172033;stroke-width:2.1;stroke-linejoin:miter"/><path id="patch_65" d="M163.08 142.08a1.8 1.8 0 1 0 0-3.6 1.8 1.8 0 0 0 0 3.6z" clip-path="url(#p67d918024a)" style="fill:#172033;stroke:#172033;stroke-width:2.1;stroke-linejoin:miter"/><path id="patch_66" d="M582.48 142.08a1.8 1.8 0 1 0 0-3.6 1.8 1.8 0 0 0 0 3.6z" clip-path="url(#p67d918024a)" style="fill:#172033;stroke:#172033;stroke-width:2.1;stroke-linejoin:miter"/><path id="patch_67" d="M425.88 142.08a1.8 1.8 0 1 0 0-3.6 1.8 1.8 0 0 0 0 3.6z" clip-path="url(#p67d918024a)" style="fill:#172033;stroke:#172033;stroke-width:2.1;stroke-linejoin:miter"/><path id="patch_68" d="M6.48 259.08a1.8 1.8 0 1 0 0-3.6 1.8 1.8 0 0 0 0 3.6z" clip-path="url(#p67d918024a)" style="fill:#172033;stroke:#172033;stroke-width:2.1;stroke-linejoin:miter"/><path id="patch_69" d="M247.68 259.08a1.8 1.8 0 1 0 0-3.6 1.8 1.8 0 0 0 0 3.6z" clip-path="url(#p67d918024a)" style="fill:#172033;stroke:#172033;stroke-width:2.1;stroke-linejoin:miter"/><path id="patch_70" d="M6.48 314.88a1.8 1.8 0 1 0 0-3.6 1.8 1.8 0 0 0 0 3.6z" clip-path="url(#p67d918024a)" style="fill:#172033;stroke:#172033;stroke-width:2.1;stroke-linejoin:miter"/><path id="patch_71" d="M163.08 314.88a1.8 1.8 0 1 0 0-3.6 1.8 1.8 0 0 0 0 3.6z" clip-path="url(#p67d918024a)" style="fill:#172033;stroke:#172033;stroke-width:2.1;stroke-linejoin:miter"/><path id="patch_72" d="M582.48 314.88a1.8 1.8 0 1 0 0-3.6 1.8 1.8 0 0 0 0 3.6z" clip-path="url(#p67d918024a)" style="fill:#172033;stroke:#172033;stroke-width:2.1;stroke-linejoin:miter"/><path id="patch_73" d="M425.88 314.88a1.8 1.8 0 1 0 0-3.6 1.8 1.8 0 0 0 0 3.6z" clip-path="url(#p67d918024a)" style="fill:#172033;stroke:#172033;stroke-width:2.1;stroke-linejoin:miter"/><path id="patch_74" d="M582.48 433.68a1.8 1.8 0 1 0 0-3.6 1.8 1.8 0 0 0 0 3.6z" clip-path="url(#p67d918024a)" style="fill:#172033;stroke:#172033;stroke-width:2.1;stroke-linejoin:miter"/><path id="patch_75" d="M445.68 433.68a1.8 1.8 0 1 0 0-3.6 1.8 1.8 0 0 0 0 3.6z" clip-path="url(#p67d918024a)" style="fill:#172033;stroke:#172033;stroke-width:2.1;stroke-linejoin:miter"/><path id="patch_76" d="M6.48 482.28a1.8 1.8 0 1 0 0-3.6 1.8 1.8 0 0 0 0 3.6z" clip-path="url(#p67d918024a)" style="fill:#172033;stroke:#172033;stroke-width:2.1;stroke-linejoin:miter"/><path id="patch_77" d="M247.68 482.28a1.8 1.8 0 1 0 0-3.6 1.8 1.8 0 0 0 0 3.6z" clip-path="url(#p67d918024a)" style="fill:#172033;stroke:#172033;stroke-width:2.1;stroke-linejoin:miter"/></g></g><defs><clipPath id="p67d918024a"><path d="M0 0h588.96v533.76H0z"/></clipPath></defs></svg>