<svg xmlns="http://www.w3.org/2000/svg" xmlns:xlink="http://www.w3.org/1999/xlink" width="657.056" height="399.04" viewBox="0 0 492.792 299.28"><defs><style>*{stroke-linejoin:round;stroke-linecap:butt}</style></defs><g id="figure_1"><path id="patch_1" d="M0 299.28h492.792V0H0z" style="fill:none"/><g id="axes_1"><path id="line2d_1" d="M7.086 87.8h100.8" clip-path="url(#p96b1e75b77)" style="fill:none;stroke:#172033;stroke-width:2.2;stroke-linecap:round"/><path id="line2d_2" d="M107.886 87.8v86.4" clip-path="url(#p96b1e75b77)" style="fill:none;stroke:#172033;stroke-width:2.2;stroke-linecap:round"/><path id="line2d_3" d="M107.886 174.2H7.086" clip-path="url(#p96b1e75b77)" style="fill:none;stroke:#172033;stroke-width:2.2;stroke-linecap:round"/><path id="line2d_4" d="M7.086 174.2V87.8" clip-path="url(#p96b1e75b77)" style="fill:none;stroke:#172033;stroke-width:2.2;stroke-linecap:round"/><path id="line2d_5" d="M381.486 87.8h100.8" clip-path="url(#p96b1e75b77)" style="fill:none;stroke:#172033;stroke-width:2.2;stroke-linecap:round"/><path id="line2d_6" d="M482.286 87.8v86.4" clip-path="url(#p96b1e75b77)" style="fill:none;stroke:#172033;stroke-width:2.2;stroke-linecap:round"/><path id="line2d_7" d="M482.286 174.2h-100.8" clip-path="url(#p96b1e75b77)" style="fill:none;stroke:#172033;stroke-width:2.2;stroke-linecap:round"/><path id="line2d_8" d="M381.486 174.2V87.8" clip-path="url(#p96b1e75b77)" style="fill:none;stroke:#172033;stroke-width:2.2;stroke-linecap:round"/><path id="line2d_9" d="M107.886 131h136.8" clip-path="url(#p96b1e75b77)" style="fill:none;stroke:#172033;stroke-width:2.2;stroke-linecap:round"/><path id="line2d_10" d="M244.686 131h136.8" clip-path="url(#p96b1e75b77)" style="fill:none;stroke:#172033;stroke-width:2.2;stroke-linecap:round"/><path id="line2d_11" d="M244.686 131v-28.8h-9v-36h18v36h-9m0-36V37.4" clip-path="url(#p96b1e75b77)" style="fill:none;stroke:#172033;stroke-width:2.2;stroke-linecap:round"/><path id="line2d_12" d="M244.686 37.4V23" clip-path="url(#p96b1e75b77)" style="fill:none;stroke:#172033;stroke-width:2.2;stroke-linecap:round"/><path id="line2d_13" d="M244.686 23h-6.75" clip-path="url(#p96b1e75b77)" style="fill:none;stroke:#172033;stroke-width:2.2;stroke-linecap:round"/><path id="line2d_14" d="M244.686 23h6.75" clip-path="url(#p96b1e75b77)" style="fill:none;stroke:#172033;stroke-width:2.2;stroke-linecap:round"/><path id="line2d_15" d="M57.486 174.2v72" clip-path="url(#p96b1e75b77)" style="fill:none;stroke:#172033;stroke-width:2.2;stroke-linecap:round"/><path id="line2d_16" d="M431.886 174.2v72" clip-path="url(#p96b1e75b77)" style="fill:none;stroke:#172033;stroke-width:2.2;stroke-linecap:round"/><path id="line2d_17" d="M57.486 246.2h374.4" clip-path="url(#p96b1e75b77)" style="fill:none;stroke:#172033;stroke-width:2.2;stroke-linecap:round"/><path id="line2d_18" d="M244.686 246.2v14.4h-9 18m-15.3 4.32h12.6m-8.1 4.32h3.6" clip-path="url(#p96b1e75b77)" style="fill:none;stroke:#172033;stroke-width:2.2;stroke-linecap:round"/><g id="text_1" style="fill:#172033" transform="matrix(.14 0 0 -.14 27.727 132.496)"><defs><path id="DejaVuSans-1a" d="M525 4666h3000v-269L1831 0h-659l1594 4134H525z" transform="scale(.01563)"/><path id="DejaVuSans-17" d="M2419 4116 825 1625h1594zm-166 550h794V1625h666v-525h-666V0h-628v1100H313v609z" transform="scale(.01563)"/><path id="DejaVuSans-2f" d="M628 4666h631V531h2272V0H628z" transform="scale(.01563)"/><path id="DejaVuSans-36" d="M3425 4513v-616q-359 172-678 256-319 85-616 85-515 0-795-200t-280-569q0-310 186-468 186-157 705-254l381-78q706-135 1042-474t336-907q0-679-455-1029Q2797-91 1919-91q-331 0-705 75-373 75-773 222v650q384-215 753-325 369-109 725-109 540 0 834 212 294 213 294 607 0 343-211 537t-692 291l-385 75q-706 140-1022 440-315 300-315 835 0 619 436 975t1201 356q329 0 669-60 341-59 697-177" transform="scale(.01563)"/></defs><use xlink:href="#DejaVuSans-1a"/><use xlink:href="#DejaVuSans-17" transform="translate(63.625)"/><use xlink:href="#DejaVuSans-2f" transform="translate(127.25)"/><use xlink:href="#DejaVuSans-36" transform="translate(182.969)"/><use xlink:href="#DejaVuSans-1a" transform="translate(246.453)"/><use xlink:href="#DejaVuSans-17" transform="translate(310.078)"/></g><g id="text_2" style="fill:#172033" transform="matrix(.14 0 0 -.14 401.198 132.62)"><defs><path id="DejaVuSans-24" d="m2188 4044-857-2322h1716zm-357 622h716L4325 0h-656l-425 1197H1141L716 0H50z" transform="scale(.01563)"/><path id="DejaVuSans-55" d="M2631 2963q-97 56-211 82-114 27-251 27-488 0-749-317t-261-911V0H581v3500h578v-544q182 319 472 473 291 155 707 155 59 0 131-8 72-7 159-23z" transform="scale(.01563)"/><path id="DejaVuSans-47" d="M2906 2969v1894h575V0h-575v525q-181-312-458-464-276-152-664-152-634 0-1033 506-398 507-398 1332t398 1331q399 506 1033 506 388 0 664-152 277-151 458-463M947 1747q0-634 261-995t717-361 718 361q263 361 263 995t-263 995q-262 361-718 361t-717-361-261-995" transform="scale(.01563)"/><path id="DejaVuSans-58" d="M544 1381v2119h575V1403q0-497 193-746 194-248 582-248 465 0 735 297 271 297 271 810v1984h575V0h-575v538q-209-319-486-474-276-155-642-155-603 0-916 375-312 375-312 1097m1447 2203" transform="scale(.01563)"/><path id="DejaVuSans-4c" d="M603 3500h575V0H603zm0 1363h575v-729H603z" transform="scale(.01563)"/><path id="DejaVuSans-51" d="M3513 2113V0h-575v2094q0 497-194 743-194 247-581 247-466 0-735-297-269-296-269-809V0H581v3500h578v-544q207 316 486 472 280 156 646 156 603 0 912-373 310-373 310-1098" transform="scale(.01563)"/><path id="DejaVuSans-52" d="M1959 3097q-462 0-731-361t-269-989 267-989q268-361 733-361 460 0 728 362 269 363 269 988 0 622-269 986-268 364-728 364m0 487q750 0 1178-488 429-487 429-1349 0-859-429-1349Q2709-91 1959-91q-753 0-1180 489-426 490-426 1349 0 862 426 1349 427 488 1180 488" transform="scale(.01563)"/></defs><use xlink:href="#DejaVuSans-24"/><use xlink:href="#DejaVuSans-55" transform="translate(68.406)"/><use xlink:href="#DejaVuSans-47" transform="translate(107.766)"/><use xlink:href="#DejaVuSans-58" transform="translate(171.25)"/><use xlink:href="#DejaVuSans-4c" transform="translate(234.625)"/><use xlink:href="#DejaVuSans-51" transform="translate(262.406)"/><use xlink:href="#DejaVuSans-52" transform="translate(325.781)"/></g><g id="text_3" style="fill:#172033" transform="matrix(.14 0 0 -.14 132.976 115.493)"><defs><path id="DejaVuSans-34" d="M2522 4238q-688 0-1093-513-404-512-404-1397 0-881 404-1394 405-512 1093-512 687 0 1089 512 402 513 402 1394 0 885-402 1397-402 513-1089 513M3406 84l832-909h-763L2784-78q-103-6-158-9-54-4-104-4-984 0-1574 658-589 658-589 1761 0 1106 589 1764 590 658 1574 658 981 0 1568-658 588-658 588-1764 0-812-327-1391-326-578-945-853" transform="scale(.01563)"/></defs><use xlink:href="#DejaVuSans-34"/></g><g id="text_4" style="fill:#172033" transform="matrix(.14 0 0 -.14 344.642 116.303)"><defs><path id="DejaVuSans-27" d="M1259 4147V519h763q966 0 1414 437 448 438 448 1382 0 937-448 1373t-1414 436zm-631 519h1297q1356 0 1990-564 635-564 635-1764 0-1207-638-1773Q3275 0 1925 0H628z" transform="scale(.01563)"/></defs><use xlink:href="#DejaVuSans-27"/><use xlink:href="#DejaVuSans-1a" transform="translate(77)"/></g><g id="text_5" style="fill:#172033" transform="matrix(.14 0 0 -.14 227.353 16.684)"><defs><path id="DejaVuSans-e" d="M2944 4013V2272h1740v-531H2944V0h-525v1741H678v531h1741v1741z" transform="scale(.01563)"/><path id="DejaVuSans-18" d="M691 4666h2478v-532H1269V2991q137 47 274 70 138 23 276 23 781 0 1237-428 457-428 457-1159 0-753-469-1171Q2575-91 1722-91q-294 0-599 50Q819 9 494 109v635q281-153 581-228t634-75q541 0 856 284 316 284 316 772 0 487-316 771-315 285-856 285-253 0-505-56-251-56-513-175z" transform="scale(.01563)"/><path id="DejaVuSans-39" d="M1831 0 50 4666h659L2188 738l1481 3928h656L2547 0z" transform="scale(.01563)"/></defs><use xlink:href="#DejaVuSans-e"/><use xlink:href="#DejaVuSans-18" transform="translate(83.797)"/><use xlink:href="#DejaVuSans-39" transform="translate(179.203)"/></g><g id="text_6" style="fill:#172033" transform="matrix(.14 0 0 -.14 294.266 61.19)"><defs><path id="DejaVuSans-Oblique-35" d="m1613 4147-319-1656h812q478 0 773 264 296 264 296 689 0 340-199 521-198 182-570 182zm1159-1906q200-47 333-232 133-184 308-734L3809 0h-665l-366 1197q-140 462-325 618-184 157-565 157h-697L806 0H172l909 4666h1422q647 0 992-293 346-292 346-842 0-487-294-844-294-356-775-446" transform="scale(.01563)"/><path id="DejaVuSans-Oblique-33" d="M1081 4666h1460q637 0 971-297 335-297 335-869 0-769-494-1197t-1387-428h-794L806 0H172zm532-519-338-1753h794q537 0 824 275 288 275 288 787 0 328-195 509-195 182-548 182z" transform="scale(.01563)"/><path id="DejaVuSans-Oblique-38" d="M991 4666h634l-550-2835q-34-190-48-314-14-123-14-217 0-431 240-655 241-223 706-223 604 0 939 331 336 331 480 1078l550 2835h635l-563-2913q-184-944-700-1394T1888-91q-700 0-1108 352t-408 955q0 109 15 245 16 136 47 292z" transform="scale(.01563)"/></defs><use xlink:href="#DejaVuSans-Oblique-35" transform="translate(0 .094)"/><use xlink:href="#DejaVuSans-Oblique-33" transform="matrix(.7 0 0 .7 69.482 -14.906)"/><use xlink:href="#DejaVuSans-Oblique-38" transform="matrix(.7 0 0 .7 111.694 -14.906)"/></g><g id="text_7" style="fill:#172033" transform="matrix(.14 0 0 -.14 283.126 86.185)"><defs><path id="DejaVuSans-f" d="M750 794h659V256L897-744H494L750 256z" transform="scale(.01563)"/><path id="DejaVuSans-4e" d="M581 4863h578V1991l1716 1509h734L1753 1863 3688 0h-750L1159 1709V0H581z" transform="scale(.01563)"/><path id="DejaVuSans-33d" d="M4647 556V0H2772v556q553 303 862 822 310 519 310 1150 0 750-413 1203-412 453-1087 453t-1089-455q-414-454-414-1201 0-631 309-1150 313-519 869-822V0H244v556h997q-494 435-722 900-225 466-225 1041 0 994 600 1609 597 616 1550 616 947 0 1550-616 600-612 600-1578 0-606-222-1069-222-462-725-903z" transform="scale(.01563)"/></defs><use xlink:href="#DejaVuSans-17"/><use xlink:href="#DejaVuSans-f" transform="translate(63.625)"/><use xlink:href="#DejaVuSans-1a" transform="translate(95.406)"/><use xlink:href="#DejaVuSans-4e" transform="translate(190.813)"/><use xlink:href="#DejaVuSans-33d" transform="translate(248.719)"/></g><g id="text_8" style="fill:#172033" transform="matrix(.14 0 0 -.14 206.188 293.1)"><defs><path id="DejaVuSans-2a" d="M3809 666v1253H2778v519h1656V434q-365-259-806-392-440-133-940-133-1094 0-1712 639-617 640-617 1780 0 1144 617 1783 618 639 1712 639 456 0 867-113 411-112 758-331v-672q-350 297-744 447t-828 150q-857 0-1287-478-429-478-429-1425 0-944 429-1422 430-478 1287-478 334 0 596 58 263 58 472 180" transform="scale(.01563)"/><path id="DejaVuSans-31" d="M628 4666h850L3547 763v3903h612V0h-850L1241 3903V0H628z" transform="scale(.01563)"/><path id="DejaVuSans-46" d="M3122 3366v-538q-244 135-489 202t-495 67q-560 0-870-355-309-354-309-995t309-996q310-354 870-354 250 0 495 67t489 202V134Q2881 22 2623-34q-257-57-548-57-791 0-1257 497-465 497-465 1341 0 856 470 1346 471 491 1290 491 265 0 518-55 253-54 491-163" transform="scale(.01563)"/><path id="DejaVuSans-50" d="M3328 2828q216 388 516 572t706 184q547 0 844-383 297-382 297-1088V0h-578v2094q0 503-179 746-178 244-543 244-447 0-707-297-259-296-259-809V0h-578v2094q0 506-178 748t-550 242q-441 0-701-298-259-298-259-808V0H581v3500h578v-544q197 322 472 475t653 153q382 0 649-194 267-193 395-562" transform="scale(.01563)"/><path id="DejaVuSans-bc" d="M544 1381v2119h575V1403q0-497 193-746 194-248 582-248 465 0 735 297 271 297 271 810v1984h575V0h-575v538q-209-319-486-474-276-155-642-155-603 0-916 375-312 375-312 1097m1874 3738h622L2022 3944h-479z" transform="scale(.01563)"/></defs><use xlink:href="#DejaVuSans-2a"/><use xlink:href="#DejaVuSans-31" transform="translate(77.484)"/><use xlink:href="#DejaVuSans-27" transform="translate(152.297)"/><use xlink:href="#DejaVuSans-46" transform="translate(261.078)"/><use xlink:href="#DejaVuSans-52" transform="translate(316.063)"/><use xlink:href="#DejaVuSans-50" transform="translate(377.25)"/><use xlink:href="#DejaVuSans-bc" transform="translate(474.656)"/><use xlink:href="#DejaVuSans-51" transform="translate(538.031)"/></g><g id="text_9" style="fill:#172033" transform="matrix(.14 0 0 -.14 4.666 58.08)"><defs><path id="DejaVuSans-Oblique-39" d="M1319 0 500 4666h619l678-4013 2266 4013h687L2053 0z" transform="scale(.01563)"/><path id="DejaVuSans-Oblique-32" d="M2919 4238q-519 0-916-252t-690-767q-188-328-287-697-98-369-98-744 0-650 311-1003t880-353q512 0 913 254 402 255 687 758 190 338 290 708 100 371 100 739 0 647-313 1002-312 355-877 355M2100-91q-859 0-1352 509-492 510-492 1395 0 506 192 1034 193 528 530 941 397 484 884 723 488 239 1076 239 856 0 1349-505 494-504 494-1376 0-538-188-1057-187-518-537-940-400-488-883-726Q2691-91 2100-91" transform="scale(.01563)"/><path id="DejaVuSans-Oblique-2b" d="M1081 4666h635l-372-1913h2290l372 1913h635L3731 0h-634l434 2222H1241L806 0H172z" transform="scale(.01563)"/><path id="DejaVuSans-af" d="M1325 5119h622L929 3944H450zM603 3500h575V0H603zm288 84" transform="scale(.01563)"/><path id="DejaVuSans-20" d="M678 2906h4006v-525H678zm0-1275h4006v-531H678z" transform="scale(.01563)"/><path id="DejaVuSans-15" d="M1228 531h2203V0H469v531q359 372 979 998 621 627 780 809 303 340 423 576 121 236 121 464 0 372-261 606-261 235-680 235-297 0-627-103-329-103-704-313v638q381 153 712 231 332 78 607 78 725 0 1156-363 431-362 431-968 0-288-108-546-107-257-392-607-78-91-497-524-418-433-1181-1211" transform="scale(.01563)"/></defs><use xlink:href="#DejaVuSans-Oblique-39" transform="translate(0 .016)"/><use xlink:href="#DejaVuSans-Oblique-32" transform="matrix(.7 0 0 .7 68.408 -14.984)"/><use xlink:href="#DejaVuSans-Oblique-2b" transform="matrix(.7 0 0 .7 123.506 -14.984)"/><use xlink:href="#DejaVuSans-50" transform="translate(210.664 .016)"/><use xlink:href="#DejaVuSans-af" transform="translate(308.076 .016)"/><use xlink:href="#DejaVuSans-51" transform="translate(335.86 .016)"/><use xlink:href="#DejaVuSans-20" transform="translate(431.025 .016)"/><use xlink:href="#DejaVuSans-15" transform="translate(546.602 .016)"/><use xlink:href="#DejaVuSans-f" transform="translate(610.225 .016)"/><use xlink:href="#DejaVuSans-1a" transform="translate(642.012 .016)"/><use xlink:href="#DejaVuSans-39" transform="translate(737.422 .016)"/></g><g id="text_10" style="fill:#172033" transform="matrix(.14 0 0 -.14 381.446 58.15)"><defs><path id="DejaVuSans-Oblique-2c" d="M1081 4666h635L806 0H172z" transform="scale(.01563)"/><path id="DejaVuSans-16" d="M2597 2516q453-97 707-404 255-306 255-756 0-690-475-1069Q2609-91 1734-91q-293 0-604 58T488 141v609q262-153 574-231 313-78 654-78 593 0 904 234t311 681q0 413-289 645-289 233-804 233h-544v519h569q465 0 712 186t247 536q0 359-255 551-254 193-729 193-260 0-557-57-297-56-653-174v562q360 100 674 150t592 50q719 0 1137-327 419-326 419-882 0-388-222-655t-631-370" transform="scale(.01563)"/><path id="DejaVuSans-13" d="M2034 4250q-487 0-733-480-245-479-245-1442 0-959 245-1439 246-480 733-480 491 0 736 480 246 480 246 1439 0 963-246 1442-245 480-736 480m0 500q785 0 1199-621 414-620 414-1801 0-1178-414-1799Q2819-91 2034-91q-784 0-1198 620-414 621-414 1799 0 1181 414 1801 414 621 1198 621" transform="scale(.01563)"/></defs><use xlink:href="#DejaVuSans-Oblique-39" transform="translate(0 .016)"/><use xlink:href="#DejaVuSans-Oblique-2c" transform="matrix(.7 0 0 .7 68.408 -14.984)"/><use xlink:href="#DejaVuSans-Oblique-2b" transform="matrix(.7 0 0 .7 89.053 -14.984)"/><use xlink:href="#DejaVuSans-50" transform="translate(176.21 .016)"/><use xlink:href="#DejaVuSans-af" transform="translate(273.623 .016)"/><use xlink:href="#DejaVuSans-51" transform="translate(301.406 .016)"/><use xlink:href="#DejaVuSans-20" transform="translate(396.572 .016)"/><use xlink:href="#DejaVuSans-16" transform="translate(512.148 .016)"/><use xlink:href="#DejaVuSans-f" transform="translate(575.771 .016)"/><use xlink:href="#DejaVuSans-13" transform="translate(607.559 .016)"/><use xlink:href="#DejaVuSans-39" transform="translate(702.969 .016)"/></g><path id="patch_2" d="M244.686 133.7a2.7 2.7 0 1 0 0-5.4 2.7 2.7 0 0 0 0 5.4z" clip-path="url(#p96b1e75b77)" style="fill:#172033;stroke:#172033;stroke-width:2.2;stroke-linejoin:miter"/><path id="patch_3" d="M57.486 248.9a2.7 2.7 0 1 0 0-5.4 2.7 2.7 0 0 0 0 5.4z" clip-path="url(#p96b1e75b77)" style="fill:#172033;stroke:#172033;stroke-width:2.2;stroke-linejoin:miter"/><path id="patch_4" d="M431.886 248.9a2.7 2.7 0 1 0 0-5.4 2.7 2.7 0 0 0 0 5.4z" clip-path="url(#p96b1e75b77)" style="fill:#172033;stroke:#172033;stroke-width:2.2;stroke-linejoin:miter"/></g></g><defs><clipPath id="p96b1e75b77"><path d="M0 0h492.792v299.28H0z"/></clipPath></defs></svg>