<svg xmlns="http://www.w3.org/2000/svg" width="1200" height="1138" viewBox="0 0 1200 1138"><title>Pinout 74LS174, vista superior, y tabla de función</title><style>text{font-family:&quot;DejaVu Sans&quot;,Arial,sans-serif;fill:#172033}.pin-number{dominant-baseline:middle}.pin-number,.signal{font-size:24px;font-weight:700;text-anchor:middle}.legend-label{font-size:22px;font-weight:600}.table-line{stroke:#cbd5e1;stroke-width:2;fill:none}.table-heading{font-weight:700}.table-heading,.table-value{font-size:26px;text-anchor:middle}.out-value{fill:#047857;font-weight:700}</style><path fill="#f8fafc" stroke="#172033" stroke-width="5" d="M120 90h960v500H120V385c55 0 55-90 0-90Z"/><circle cx="170" cy="545" r="8" fill="#172033"/><path stroke="#172033" stroke-width="5" d="M180 590v50"/><text x="180" y="575" class="pin-number">1</text><text x="180" y="676" fill="#334155" class="signal">/MR</text><path stroke="#172033" stroke-width="5" d="M300 590v50"/><text x="300" y="575" class="pin-number">2</text><text x="300" y="676" fill="#047857" class="signal">Q1</text><path stroke="#172033" stroke-width="5" d="M420 590v50"/><text x="420" y="575" class="pin-number">3</text><text x="420" y="676" fill="#334155" class="signal">D1</text><path stroke="#172033" stroke-width="5" d="M540 590v50"/><text x="540" y="575" class="pin-number">4</text><text x="540" y="676" fill="#334155" class="signal">D2</text><path stroke="#172033" stroke-width="5" d="M660 590v50"/><text x="660" y="575" class="pin-number">5</text><text x="660" y="676" fill="#047857" class="signal">Q2</text><path stroke="#172033" stroke-width="5" d="M780 590v50"/><text x="780" y="575" class="pin-number">6</text><text x="780" y="676" fill="#334155" class="signal">D3</text><path stroke="#172033" stroke-width="5" d="M900 590v50"/><text x="900" y="575" class="pin-number">7</text><text x="900" y="676" fill="#047857" class="signal">Q3</text><path stroke="#172033" stroke-width="5" d="M1020 590v50"/><text x="1020" y="575" class="pin-number">8</text><text x="1020" y="676" fill="#0369a1" class="signal">GND</text><path stroke="#172033" stroke-width="5" d="M1020 90V40"/><text x="1020" y="120" class="pin-number">9</text><text x="1020" y="28" fill="#334155" class="signal">CLK</text><path stroke="#172033" stroke-width="5" d="M900 90V40"/><text x="900" y="120" class="pin-number">10</text><text x="900" y="28" fill="#047857" class="signal">Q4</text><path stroke="#172033" stroke-width="5" d="M780 90V40"/><text x="780" y="120" class="pin-number">11</text><text x="780" y="28" fill="#334155" class="signal">D4</text><path stroke="#172033" stroke-width="5" d="M660 90V40"/><text x="660" y="120" class="pin-number">12</text><text x="660" y="28" fill="#334155" class="signal">D5</text><path stroke="#172033" stroke-width="5" d="M540 90V40"/><text x="540" y="120" class="pin-number">13</text><text x="540" y="28" fill="#047857" class="signal">Q5</text><path stroke="#172033" stroke-width="5" d="M420 90V40"/><text x="420" y="120" class="pin-number">14</text><text x="420" y="28" fill="#334155" class="signal">D6</text><path stroke="#172033" stroke-width="5" d="M300 90V40"/><text x="300" y="120" class="pin-number">15</text><text x="300" y="28" fill="#047857" class="signal">Q6</text><path stroke="#172033" stroke-width="5" d="M180 90V40"/><text x="180" y="120" class="pin-number">16</text><text x="180" y="28" fill="#b91c1c" class="signal">VCC</text><rect width="360" height="72" x="420" y="305" fill="#fff" stroke="#cbd5e1" stroke-width="2" rx="14"/><text x="600" y="337" style="font-size:34px;font-weight:700;text-anchor:middle">74LS174</text><text x="600" y="363" style="font-size:19px;font-weight:600;letter-spacing:1px;text-anchor:middle;fill:#475569">REGISTRO DE 6 FLIP-FLOPS D</text><path stroke="#cbd5e1" stroke-width="2" d="M110 700h980"/><rect width="26" height="14" x="175" y="718" fill="#334155" rx="4"/><text x="211" y="730" class="legend-label">Entrada</text><rect width="26" height="14" x="405" y="718" fill="#047857" rx="4"/><text x="441" y="730" class="legend-label">Salida</text><rect width="26" height="14" x="635" y="718" fill="#b91c1c" rx="4"/><text x="671" y="730" class="legend-label">Alimentación</text><rect width="26" height="14" x="865" y="718" fill="#0369a1" rx="4"/><text x="901" y="730" class="legend-label">Tierra</text><rect width="800" height="270" x="200" y="762" rx="10" style="fill:#fff;stroke:#172033;stroke-width:3"/><path d="M200 824h800" style="stroke:#172033;stroke-width:3;fill:none"/><path d="M400 762v270m200-270v270m200-270v270" class="table-line"/><text x="300" y="798" class="table-heading">/MR</text><text x="500" y="798" class="table-heading">CLK</text><text x="700" y="798" class="table-heading">Dn</text><text x="900" y="798" class="table-heading">Qn después</text><text x="300" y="855" class="table-value">0</text><text x="500" y="855" class="table-value">X</text><text x="700" y="855" class="table-value">X</text><text x="900" y="855" class="table-value out-value">0</text><path d="M200 876h800" class="table-line"/><text x="300" y="907" class="table-value">1</text><text x="500" y="907" class="table-value">↑</text><text x="700" y="907" class="table-value">0</text><text x="900" y="907" class="table-value out-value">0</text><path d="M200 928h800" class="table-line"/><text x="300" y="959" class="table-value">1</text><text x="500" y="959" class="table-value">↑</text><text x="700" y="959" class="table-value">1</text><text x="900" y="959" class="table-value out-value">1</text><path d="M200 980h800" class="table-line"/><text x="300" y="1011" class="table-value">1</text><text x="500" y="1011" class="table-value">0 ó 1</text><text x="700" y="1011" class="table-value">X</text><text x="900" y="1011" class="table-value out-value">sin cambio</text><text x="600" y="1076" style="font-size:22px;text-anchor:middle;fill:#475569">Los seis flip-flops comparten reloj y borrado: guardan la palabra completa en un solo flanco.</text><text x="600" y="1108" style="font-size:20px;font-style:italic;text-anchor:middle;fill:#94a3b8">Vista superior. Confirma el pinout en la hoja de datos de tu fabricante.</text></svg>