<svg xmlns="http://www.w3.org/2000/svg" width="1200" height="1120" viewBox="0 0 1200 1120"><title>Pinout 74LS00 DIP-14, vista superior</title><style>text{font-family:&quot;DejaVu Sans&quot;,Arial,sans-serif;fill:#172033}.gate-id,.pin-number,.signal{font-weight:700;text-anchor:middle}.pin-number{font-size:20px;dominant-baseline:middle}.signal{font-size:21px}.gate-id{font-size:17px;fill:#475569}.port-label{font-size:24px;font-weight:600;text-anchor:end}.sample-wire,.table-line{stroke:#172033;stroke-width:4}.table-line{stroke-width:2}.table-heading{font-size:24px;font-weight:600;text-anchor:middle}.table-value{font-size:25px;text-anchor:middle}.output-text{fill:#dc2626}</style><path fill="#f8fafc" stroke="#172033" stroke-width="5" d="M120 90h960v500H120V385c55 0 55-90 0-90z"/><circle cx="170" cy="545" r="8" fill="#172033"/><path stroke="#172033" stroke-width="5" d="M200 590v50"/><text x="200" y="575" class="pin-number">1</text><text x="200" y="676" fill="#334155" class="signal">1A</text><path stroke="#172033" stroke-width="5" d="M330 590v50"/><text x="330" y="575" class="pin-number">2</text><text x="330" y="676" fill="#334155" class="signal">1B</text><path stroke="#172033" stroke-width="5" d="M460 590v50"/><text x="460" y="575" class="pin-number">3</text><text x="460" y="676" fill="#047857" class="signal">1Y</text><path stroke="#172033" stroke-width="5" d="M590 590v50"/><text x="590" y="575" class="pin-number">4</text><text x="590" y="676" fill="#334155" class="signal">2A</text><path stroke="#172033" stroke-width="5" d="M720 590v50"/><text x="720" y="575" class="pin-number">5</text><text x="720" y="676" fill="#334155" class="signal">2B</text><path stroke="#172033" stroke-width="5" d="M850 590v50"/><text x="850" y="575" class="pin-number">6</text><text x="850" y="676" fill="#047857" class="signal">2Y</text><path stroke="#172033" stroke-width="5" d="M980 590v50"/><text x="980" y="575" class="pin-number">7</text><text x="980" y="676" fill="#0369a1" class="signal">GND</text><path stroke="#172033" stroke-width="5" d="M980 90V40"/><text x="980" y="120" class="pin-number">8</text><text x="980" y="28" fill="#047857" class="signal">3Y</text><path stroke="#172033" stroke-width="5" d="M850 90V40"/><text x="850" y="120" class="pin-number">9</text><text x="850" y="28" fill="#334155" class="signal">3A</text><path stroke="#172033" stroke-width="5" d="M720 90V40"/><text x="720" y="120" class="pin-number">10</text><text x="720" y="28" fill="#334155" class="signal">3B</text><path stroke="#172033" stroke-width="5" d="M590 90V40"/><text x="590" y="120" class="pin-number">11</text><text x="590" y="28" fill="#047857" class="signal">4Y</text><path stroke="#172033" stroke-width="5" d="M460 90V40"/><text x="460" y="120" class="pin-number">12</text><text x="460" y="28" fill="#334155" class="signal">4A</text><path stroke="#172033" stroke-width="5" d="M330 90V40"/><text x="330" y="120" class="pin-number">13</text><text x="330" y="28" fill="#334155" class="signal">4B</text><path stroke="#172033" stroke-width="5" d="M200 90V40"/><text x="200" y="120" class="pin-number">14</text><text x="200" y="28" fill="#b91c1c" class="signal">VCC</text><path fill="none" stroke="#64748b" stroke-linejoin="round" stroke-width="3" d="M200 590V440h78"/><path fill="none" stroke="#64748b" stroke-linejoin="round" stroke-width="3" d="M330 590v-72h-84v-48h32"/><path fill="none" stroke="#047857" stroke-width="4" d="M460 590V455h-30"/><path fill="#fff" stroke="#172033" stroke-width="4" d="M300 425h36c36 0 50 15 50 30s-14 30-50 30h-36Z"/><path stroke="#172033" stroke-width="4" d="M278 440h22m-22 30h22"/><circle cx="398" cy="455" r="10" fill="#fff" stroke="#172033" stroke-width="4"/><path stroke="#047857" stroke-width="4" d="M408 455h22"/><text x="344" y="409" class="gate-id">G1</text><path fill="none" stroke="#64748b" stroke-linejoin="round" stroke-width="3" d="M590 590V440h78"/><path fill="none" stroke="#64748b" stroke-linejoin="round" stroke-width="3" d="M720 590v-72h-84v-48h32"/><path fill="none" stroke="#047857" stroke-width="4" d="M850 590V455h-30"/><path fill="#fff" stroke="#172033" stroke-width="4" d="M690 425h36c36 0 50 15 50 30s-14 30-50 30h-36Z"/><path stroke="#172033" stroke-width="4" d="M668 440h22m-22 30h22"/><circle cx="788" cy="455" r="10" fill="#fff" stroke="#172033" stroke-width="4"/><path stroke="#047857" stroke-width="4" d="M798 455h22"/><text x="734" y="409" class="gate-id">G2</text><path fill="none" stroke="#64748b" stroke-linejoin="round" stroke-width="3" d="M460 90v50H360v55h28"/><path fill="none" stroke="#64748b" stroke-linejoin="round" stroke-width="3" d="M330 90v135h58"/><path fill="none" stroke="#047857" stroke-width="4" d="M590 90v120h-50"/><path fill="#fff" stroke="#172033" stroke-width="4" d="M410 180h36c36 0 50 15 50 30s-14 30-50 30h-36Z"/><path stroke="#172033" stroke-width="4" d="M388 195h22m-22 30h22"/><circle cx="508" cy="210" r="10" fill="#fff" stroke="#172033" stroke-width="4"/><path stroke="#047857" stroke-width="4" d="M518 210h22"/><text x="454" y="262" class="gate-id">G4</text><path fill="none" stroke="#64748b" stroke-linejoin="round" stroke-width="3" d="M850 90v50H750v55h28"/><path fill="none" stroke="#64748b" stroke-linejoin="round" stroke-width="3" d="M720 90v135h58"/><path fill="none" stroke="#047857" stroke-width="4" d="M980 90v120h-50"/><path fill="#fff" stroke="#172033" stroke-width="4" d="M800 180h36c36 0 50 15 50 30s-14 30-50 30h-36Z"/><path stroke="#172033" stroke-width="4" d="M778 195h22m-22 30h22"/><circle cx="898" cy="210" r="10" fill="#fff" stroke="#172033" stroke-width="4"/><path stroke="#047857" stroke-width="4" d="M908 210h22"/><text x="844" y="262" class="gate-id">G3</text><rect width="240" height="72" x="480" y="305" fill="#fff" stroke="#cbd5e1" stroke-width="2" rx="14"/><text x="600" y="337" style="font-size:34px;font-weight:700;text-anchor:middle">74LS00</text><text x="600" y="363" style="font-size:18px;font-weight:600;letter-spacing:1px;text-anchor:middle;fill:#475569">QUAD NAND</text><path stroke="#cbd5e1" stroke-width="2" d="M110 690h980"/><text x="290" y="750" style="font-size:32px;font-weight:700;text-anchor:middle;fill:#dc2626">NAND</text><path d="M170 840h53" class="sample-wire"/><text x="150" y="847" class="port-label">A</text><path d="M170 870h53" class="sample-wire"/><text x="150" y="877" class="port-label">B</text><path d="M375 855h15" style="stroke:#047857;stroke-width:4"/><text x="410" y="862" style="font-size:24px;font-weight:700;fill:#047857">Y</text><path fill="#fff" stroke="#172033" stroke-width="4" d="M245 825h36c36 0 50 15 50 30s-14 30-50 30h-36Z"/><path stroke="#172033" stroke-width="4" d="M223 840h22m-22 30h22"/><circle cx="343" cy="855" r="10" fill="#fff" stroke="#172033" stroke-width="4"/><path stroke="#047857" stroke-width="4" d="M353 855h22"/><text x="290" y="970" style="font-size:30px;font-weight:600;text-anchor:middle">Y = ¬(A · B)</text><path d="M580 720h480v305H580z" style="fill:#fff;stroke:#172033;stroke-width:3"/><text x="740" y="765" class="table-heading">Entradas</text><text x="980" y="765" class="table-heading output-text">Salida</text><path d="M580 785h480m-480 48h480m-320-48v240m160-240v240m0-305v305" class="table-line"/><text x="660" y="818" class="table-heading">A</text><text x="820" y="818" class="table-heading">B</text><text x="980" y="818" class="table-heading output-text">Y</text><text x="660" y="866" class="table-value">0</text><text x="820" y="866" class="table-value">0</text><text x="980" y="866" class="table-value output-text">1</text><path d="M580 881h480" class="table-line"/><text x="660" y="914" class="table-value">0</text><text x="820" y="914" class="table-value">1</text><text x="980" y="914" class="table-value output-text">1</text><path d="M580 929h480" class="table-line"/><text x="660" y="962" class="table-value">1</text><text x="820" y="962" class="table-value">0</text><text x="980" y="962" class="table-value output-text">1</text><path d="M580 977h480" class="table-line"/><text x="660" y="1010" class="table-value">1</text><text x="820" y="1010" class="table-value">1</text><text x="980" y="1010" class="table-value output-text">0</text></svg>