<svg xmlns="http://www.w3.org/2000/svg" width="1200" height="1450" viewBox="0 0 1200 1450"><title>Pinout 74LS48, vista superior, y tabla de función</title><style>text{font-family:&quot;DejaVu Sans&quot;,Arial,sans-serif;fill:#172033}.pin-number{dominant-baseline:middle}.pin-number,.signal{font-size:24px;font-weight:700;text-anchor:middle}.legend-label{font-size:22px;font-weight:600}.table-line{stroke:#cbd5e1;stroke-width:2;fill:none}.table-heading{font-weight:700}.table-heading,.table-value{font-size:26px;text-anchor:middle}.out-value{fill:#047857;font-weight:700}</style><path fill="#f8fafc" stroke="#172033" stroke-width="5" d="M120 90h960v500H120V385c55 0 55-90 0-90Z"/><circle cx="170" cy="545" r="8" fill="#172033"/><path stroke="#172033" stroke-width="5" d="M180 590v50"/><text x="180" y="575" class="pin-number">1</text><text x="180" y="676" fill="#334155" class="signal">B</text><path stroke="#172033" stroke-width="5" d="M300 590v50"/><text x="300" y="575" class="pin-number">2</text><text x="300" y="676" fill="#334155" class="signal">C</text><path stroke="#172033" stroke-width="5" d="M420 590v50"/><text x="420" y="575" class="pin-number">3</text><text x="420" y="676" fill="#334155" class="signal">/LT</text><path stroke="#172033" stroke-width="5" d="M540 590v50"/><text x="540" y="575" class="pin-number">4</text><text x="540" y="676" fill="#334155" class="signal">/BI-/RBO</text><path stroke="#172033" stroke-width="5" d="M660 590v50"/><text x="660" y="575" class="pin-number">5</text><text x="660" y="676" fill="#334155" class="signal">/RBI</text><path stroke="#172033" stroke-width="5" d="M780 590v50"/><text x="780" y="575" class="pin-number">6</text><text x="780" y="676" fill="#334155" class="signal">D</text><path stroke="#172033" stroke-width="5" d="M900 590v50"/><text x="900" y="575" class="pin-number">7</text><text x="900" y="676" fill="#334155" class="signal">A</text><path stroke="#172033" stroke-width="5" d="M1020 590v50"/><text x="1020" y="575" class="pin-number">8</text><text x="1020" y="676" fill="#0369a1" class="signal">GND</text><path stroke="#172033" stroke-width="5" d="M1020 90V40"/><text x="1020" y="120" class="pin-number">9</text><text x="1020" y="28" fill="#047857" class="signal">e</text><path stroke="#172033" stroke-width="5" d="M900 90V40"/><text x="900" y="120" class="pin-number">10</text><text x="900" y="28" fill="#047857" class="signal">d</text><path stroke="#172033" stroke-width="5" d="M780 90V40"/><text x="780" y="120" class="pin-number">11</text><text x="780" y="28" fill="#047857" class="signal">c</text><path stroke="#172033" stroke-width="5" d="M660 90V40"/><text x="660" y="120" class="pin-number">12</text><text x="660" y="28" fill="#047857" class="signal">b</text><path stroke="#172033" stroke-width="5" d="M540 90V40"/><text x="540" y="120" class="pin-number">13</text><text x="540" y="28" fill="#047857" class="signal">a</text><path stroke="#172033" stroke-width="5" d="M420 90V40"/><text x="420" y="120" class="pin-number">14</text><text x="420" y="28" fill="#047857" class="signal">g</text><path stroke="#172033" stroke-width="5" d="M300 90V40"/><text x="300" y="120" class="pin-number">15</text><text x="300" y="28" fill="#047857" class="signal">f</text><path stroke="#172033" stroke-width="5" d="M180 90V40"/><text x="180" y="120" class="pin-number">16</text><text x="180" y="28" fill="#b91c1c" class="signal">VCC</text><rect width="432" height="72" x="384" y="305" fill="#fff" stroke="#cbd5e1" stroke-width="2" rx="14"/><text x="600" y="337" style="font-size:34px;font-weight:700;text-anchor:middle">74LS48</text><text x="600" y="363" style="font-size:19px;font-weight:600;letter-spacing:1px;text-anchor:middle;fill:#475569">BCD A 7 SEGMENTOS · CÁTODO COMÚN</text><path stroke="#cbd5e1" stroke-width="2" d="M110 700h980"/><rect width="26" height="14" x="175" y="718" fill="#334155" rx="4"/><text x="211" y="730" class="legend-label">Entrada</text><rect width="26" height="14" x="405" y="718" fill="#047857" rx="4"/><text x="441" y="730" class="legend-label">Salida</text><rect width="26" height="14" x="635" y="718" fill="#b91c1c" rx="4"/><text x="671" y="730" class="legend-label">Alimentación</text><rect width="26" height="14" x="865" y="718" fill="#0369a1" rx="4"/><text x="901" y="730" class="legend-label">Tierra</text><rect width="1062" height="582" x="69" y="762" rx="10" style="fill:#fff;stroke:#172033;stroke-width:3"/><path d="M69 824h1062" style="stroke:#172033;stroke-width:3;fill:none"/><path d="M187 762v582m118-582v582m118-582v582m118-582v582m118-582v582m118-582v582m118-582v582m118-582v582" class="table-line"/><text x="128" y="798" class="table-heading">D C B A</text><text x="246" y="798" class="table-heading">Cifra</text><text x="364" y="798" class="table-heading">a</text><text x="482" y="798" class="table-heading">b</text><text x="600" y="798" class="table-heading">c</text><text x="718" y="798" class="table-heading">d</text><text x="836" y="798" class="table-heading">e</text><text x="954" y="798" class="table-heading">f</text><text x="1072" y="798" class="table-heading">g</text><text x="128" y="855" class="table-value">0000</text><text x="246" y="855" class="table-value">0</text><text x="364" y="855" class="table-value out-value">1</text><text x="482" y="855" class="table-value out-value">1</text><text x="600" y="855" class="table-value out-value">1</text><text x="718" y="855" class="table-value out-value">1</text><text x="836" y="855" class="table-value out-value">1</text><text x="954" y="855" class="table-value out-value">1</text><text x="1072" y="855" class="table-value out-value">0</text><path d="M69 876h1062" class="table-line"/><text x="128" y="907" class="table-value">0001</text><text x="246" y="907" class="table-value">1</text><text x="364" y="907" class="table-value out-value">0</text><text x="482" y="907" class="table-value out-value">1</text><text x="600" y="907" class="table-value out-value">1</text><text x="718" y="907" class="table-value out-value">0</text><text x="836" y="907" class="table-value out-value">0</text><text x="954" y="907" class="table-value out-value">0</text><text x="1072" y="907" class="table-value out-value">0</text><path d="M69 928h1062" class="table-line"/><text x="128" y="959" class="table-value">0010</text><text x="246" y="959" class="table-value">2</text><text x="364" y="959" class="table-value out-value">1</text><text x="482" y="959" class="table-value out-value">1</text><text x="600" y="959" class="table-value out-value">0</text><text x="718" y="959" class="table-value out-value">1</text><text x="836" y="959" class="table-value out-value">1</text><text x="954" y="959" class="table-value out-value">0</text><text x="1072" y="959" class="table-value out-value">1</text><path d="M69 980h1062" class="table-line"/><text x="128" y="1011" class="table-value">0011</text><text x="246" y="1011" class="table-value">3</text><text x="364" y="1011" class="table-value out-value">1</text><text x="482" y="1011" class="table-value out-value">1</text><text x="600" y="1011" class="table-value out-value">1</text><text x="718" y="1011" class="table-value out-value">1</text><text x="836" y="1011" class="table-value out-value">0</text><text x="954" y="1011" class="table-value out-value">0</text><text x="1072" y="1011" class="table-value out-value">1</text><path d="M69 1032h1062" class="table-line"/><text x="128" y="1063" class="table-value">0100</text><text x="246" y="1063" class="table-value">4</text><text x="364" y="1063" class="table-value out-value">0</text><text x="482" y="1063" class="table-value out-value">1</text><text x="600" y="1063" class="table-value out-value">1</text><text x="718" y="1063" class="table-value out-value">0</text><text x="836" y="1063" class="table-value out-value">0</text><text x="954" y="1063" class="table-value out-value">1</text><text x="1072" y="1063" class="table-value out-value">1</text><path d="M69 1084h1062" class="table-line"/><text x="128" y="1115" class="table-value">0101</text><text x="246" y="1115" class="table-value">5</text><text x="364" y="1115" class="table-value out-value">1</text><text x="482" y="1115" class="table-value out-value">0</text><text x="600" y="1115" class="table-value out-value">1</text><text x="718" y="1115" class="table-value out-value">1</text><text x="836" y="1115" class="table-value out-value">0</text><text x="954" y="1115" class="table-value out-value">1</text><text x="1072" y="1115" class="table-value out-value">1</text><path d="M69 1136h1062" class="table-line"/><text x="128" y="1167" class="table-value">0110</text><text x="246" y="1167" class="table-value">6</text><text x="364" y="1167" class="table-value out-value">0</text><text x="482" y="1167" class="table-value out-value">0</text><text x="600" y="1167" class="table-value out-value">1</text><text x="718" y="1167" class="table-value out-value">1</text><text x="836" y="1167" class="table-value out-value">1</text><text x="954" y="1167" class="table-value out-value">1</text><text x="1072" y="1167" class="table-value out-value">1</text><path d="M69 1188h1062" class="table-line"/><text x="128" y="1219" class="table-value">0111</text><text x="246" y="1219" class="table-value">7</text><text x="364" y="1219" class="table-value out-value">1</text><text x="482" y="1219" class="table-value out-value">1</text><text x="600" y="1219" class="table-value out-value">1</text><text x="718" y="1219" class="table-value out-value">0</text><text x="836" y="1219" class="table-value out-value">0</text><text x="954" y="1219" class="table-value out-value">0</text><text x="1072" y="1219" class="table-value out-value">0</text><path d="M69 1240h1062" class="table-line"/><text x="128" y="1271" class="table-value">1000</text><text x="246" y="1271" class="table-value">8</text><text x="364" y="1271" class="table-value out-value">1</text><text x="482" y="1271" class="table-value out-value">1</text><text x="600" y="1271" class="table-value out-value">1</text><text x="718" y="1271" class="table-value out-value">1</text><text x="836" y="1271" class="table-value out-value">1</text><text x="954" y="1271" class="table-value out-value">1</text><text x="1072" y="1271" class="table-value out-value">1</text><path d="M69 1292h1062" class="table-line"/><text x="128" y="1323" class="table-value">1001</text><text x="246" y="1323" class="table-value">9</text><text x="364" y="1323" class="table-value out-value">1</text><text x="482" y="1323" class="table-value out-value">1</text><text x="600" y="1323" class="table-value out-value">1</text><text x="718" y="1323" class="table-value out-value">0</text><text x="836" y="1323" class="table-value out-value">0</text><text x="954" y="1323" class="table-value out-value">1</text><text x="1072" y="1323" class="table-value out-value">1</text><text x="600" y="1388" style="font-size:22px;text-anchor:middle;fill:#475569">Salidas activas en alto: 1 enciende el segmento. Cada segmento necesita su resistencia.</text><text x="600" y="1420" style="font-size:20px;font-style:italic;text-anchor:middle;fill:#94a3b8">Vista superior. Confirma el pinout en la hoja de datos de tu fabricante.</text></svg>