<svg xmlns="http://www.w3.org/2000/svg" xmlns:xlink="http://www.w3.org/1999/xlink" width="698.88" height="422.507" viewBox="0 0 524.16 316.88"><defs><style>*{stroke-linejoin:round;stroke-linecap:butt}</style></defs><g id="figure_1"><path id="patch_1" d="M0 316.88h524.16V0H0z" style="fill:none"/><g id="axes_1"><path id="patch_2" d="M110.82 129.08a19.8 19.8 0 1 0 0-39.602 19.8 19.8 0 0 0 0 39.602z" clip-path="url(#p3d57d84da8)" style="fill:none;stroke:#172033;stroke-width:2.2;stroke-linejoin:miter"/><path id="patch_3" d="M110.82 237.08a19.8 19.8 0 1 0 0-39.602 19.8 19.8 0 0 0 0 39.602z" clip-path="url(#p3d57d84da8)" style="fill:none;stroke:#172033;stroke-width:2.2;stroke-linejoin:miter"/><path id="patch_4" d="m4.68 115.58 9-12.6 9 12.6z" clip-path="url(#p3d57d84da8)" style="fill:none;stroke:#172033;stroke-width:2.2;stroke-linecap:round"/><path id="patch_5" d="m4.68 223.58 9-12.6 9 12.6z" clip-path="url(#p3d57d84da8)" style="fill:none;stroke:#172033;stroke-width:2.2;stroke-linecap:round"/><path id="patch_6" d="M398.82 129.08a19.8 19.8 0 1 0 0-39.602 19.8 19.8 0 0 0 0 39.602z" clip-path="url(#p3d57d84da8)" style="fill:none;stroke:#172033;stroke-width:2.2;stroke-linejoin:miter"/><path id="patch_7" d="M398.82 237.08a19.8 19.8 0 1 0 0-39.602 19.8 19.8 0 0 0 0 39.602z" clip-path="url(#p3d57d84da8)" style="fill:none;stroke:#172033;stroke-width:2.2;stroke-linejoin:miter"/><path id="patch_8" d="m501.48 115.58 9-12.6 9 12.6z" clip-path="url(#p3d57d84da8)" style="fill:none;stroke:#172033;stroke-width:2.2;stroke-linecap:round"/><path id="patch_9" d="m501.48 223.58 9-12.6 9 12.6z" clip-path="url(#p3d57d84da8)" style="fill:none;stroke:#172033;stroke-width:2.2;stroke-linecap:round"/><path id="patch_10" d="M244.08 181.28a18 18 0 1 0 0-36.002 18 18 0 0 0 0 36.002z" clip-path="url(#p3d57d84da8)" style="fill:none;stroke:#172033;stroke-width:2.2;stroke-linejoin:miter"/><path id="line2d_1" d="M91.02 109.28h13.2" clip-path="url(#p3d57d84da8)" style="fill:none;stroke:#172033;stroke-width:2.2;stroke-linecap:round"/><path id="line2d_2" d="M104.22 96.08v26.4" clip-path="url(#p3d57d84da8)" style="fill:none;stroke:#172033;stroke-width:2.2;stroke-linecap:round"/><path id="line2d_3" d="m104.22 102.68 13.86-11.88v-6.6" clip-path="url(#p3d57d84da8)" style="fill:none;stroke:#172033;stroke-width:2.2;stroke-linecap:round"/><path id="line2d_4" d="m104.22 115.88 13.86 11.88v6.6" clip-path="url(#p3d57d84da8)" style="fill:none;stroke:#172033;stroke-width:2.2;stroke-linecap:round"/><path id="line2d_5" d="m104.22 115.88 7.027 6.023" clip-path="url(#p3d57d84da8)" style="fill:none;stroke:#172033;stroke-width:2.2;stroke-linecap:round"/><path id="patch_11" d="m113.59 119.17 4.49 8.59-9.176-3.124z" clip-path="url(#p3d57d84da8)" style="fill:#172033"/><path id="line2d_6" d="M91.02 217.28h13.2" clip-path="url(#p3d57d84da8)" style="fill:none;stroke:#172033;stroke-width:2.2;stroke-linecap:round"/><path id="line2d_7" d="M104.22 204.08v26.4" clip-path="url(#p3d57d84da8)" style="fill:none;stroke:#172033;stroke-width:2.2;stroke-linecap:round"/><path id="line2d_8" d="m104.22 210.68 13.86-11.88v-6.6" clip-path="url(#p3d57d84da8)" style="fill:none;stroke:#172033;stroke-width:2.2;stroke-linecap:round"/><path id="line2d_9" d="m104.22 223.88 13.86 11.88v6.6" clip-path="url(#p3d57d84da8)" style="fill:none;stroke:#172033;stroke-width:2.2;stroke-linecap:round"/><path id="line2d_10" d="m104.22 223.88 7.027 6.023" clip-path="url(#p3d57d84da8)" style="fill:none;stroke:#172033;stroke-width:2.2;stroke-linecap:round"/><path id="patch_12" d="m113.59 227.17 4.49 8.59-9.176-3.124z" clip-path="url(#p3d57d84da8)" style="fill:#172033"/><path id="line2d_11" d="M118.08 134.36v57.84" clip-path="url(#p3d57d84da8)" style="fill:none;stroke:#172033;stroke-width:2.2;stroke-linecap:round"/><path id="line2d_12" d="M91.02 109.28h-19.8" clip-path="url(#p3d57d84da8)" style="fill:none;stroke:#172033;stroke-width:2.2;stroke-linecap:round"/><path id="line2d_13" d="M91.02 217.28h-19.8" clip-path="url(#p3d57d84da8)" style="fill:none;stroke:#172033;stroke-width:2.2;stroke-linecap:round"/><path id="line2d_14" d="M118.08 84.2H13.68" clip-path="url(#p3d57d84da8)" style="fill:none;stroke:#172033;stroke-width:2.2;stroke-linecap:round"/><path id="line2d_15" d="M13.68 134.36v-18.78m-9-12.6h18m-9 0V84.2" clip-path="url(#p3d57d84da8)" style="fill:none;stroke:#172033;stroke-width:2.2;stroke-linecap:round"/><path id="line2d_16" d="M118.08 134.36H13.68" clip-path="url(#p3d57d84da8)" style="fill:none;stroke:#172033;stroke-width:2.2;stroke-linecap:round"/><path id="line2d_17" d="M118.08 192.2H13.68" clip-path="url(#p3d57d84da8)" style="fill:none;stroke:#172033;stroke-width:2.2;stroke-linecap:round"/><path id="line2d_18" d="M13.68 242.36v-18.78m-9-12.6h18m-9 0V192.2" clip-path="url(#p3d57d84da8)" style="fill:none;stroke:#172033;stroke-width:2.2;stroke-linecap:round"/><path id="line2d_19" d="M118.08 242.36H13.68" clip-path="url(#p3d57d84da8)" style="fill:none;stroke:#172033;stroke-width:2.2;stroke-linecap:round"/><path id="line2d_20" d="M379.02 109.28h13.2" clip-path="url(#p3d57d84da8)" style="fill:none;stroke:#172033;stroke-width:2.2;stroke-linecap:round"/><path id="line2d_21" d="M392.22 96.08v26.4" clip-path="url(#p3d57d84da8)" style="fill:none;stroke:#172033;stroke-width:2.2;stroke-linecap:round"/><path id="line2d_22" d="m392.22 102.68 13.86-11.88v-6.6" clip-path="url(#p3d57d84da8)" style="fill:none;stroke:#172033;stroke-width:2.2;stroke-linecap:round"/><path id="line2d_23" d="m392.22 115.88 13.86 11.88v6.6" clip-path="url(#p3d57d84da8)" style="fill:none;stroke:#172033;stroke-width:2.2;stroke-linecap:round"/><path id="line2d_24" d="m392.22 115.88 7.027 6.023" clip-path="url(#p3d57d84da8)" style="fill:none;stroke:#172033;stroke-width:2.2;stroke-linecap:round"/><path id="patch_13" d="m401.59 119.17 4.49 8.59-9.176-3.124z" clip-path="url(#p3d57d84da8)" style="fill:#172033"/><path id="line2d_25" d="M379.02 217.28h13.2" clip-path="url(#p3d57d84da8)" style="fill:none;stroke:#172033;stroke-width:2.2;stroke-linecap:round"/><path id="line2d_26" d="M392.22 204.08v26.4" clip-path="url(#p3d57d84da8)" style="fill:none;stroke:#172033;stroke-width:2.2;stroke-linecap:round"/><path id="line2d_27" d="m392.22 210.68 13.86-11.88v-6.6" clip-path="url(#p3d57d84da8)" style="fill:none;stroke:#172033;stroke-width:2.2;stroke-linecap:round"/><path id="line2d_28" d="m392.22 223.88 13.86 11.88v6.6" clip-path="url(#p3d57d84da8)" style="fill:none;stroke:#172033;stroke-width:2.2;stroke-linecap:round"/><path id="line2d_29" d="m392.22 223.88 7.027 6.023" clip-path="url(#p3d57d84da8)" style="fill:none;stroke:#172033;stroke-width:2.2;stroke-linecap:round"/><path id="patch_14" d="m401.59 227.17 4.49 8.59-9.176-3.124z" clip-path="url(#p3d57d84da8)" style="fill:#172033"/><path id="line2d_30" d="M406.08 134.36v57.84" clip-path="url(#p3d57d84da8)" style="fill:none;stroke:#172033;stroke-width:2.2;stroke-linecap:round"/><path id="line2d_31" d="M379.02 109.28h-19.8" clip-path="url(#p3d57d84da8)" style="fill:none;stroke:#172033;stroke-width:2.2;stroke-linecap:round"/><path id="line2d_32" d="M379.02 217.28h-19.8" clip-path="url(#p3d57d84da8)" style="fill:none;stroke:#172033;stroke-width:2.2;stroke-linecap:round"/><path id="line2d_33" d="M406.08 84.2h104.4" clip-path="url(#p3d57d84da8)" style="fill:none;stroke:#172033;stroke-width:2.2;stroke-linecap:round"/><path id="line2d_34" d="M510.48 134.36v-18.78m-9-12.6h18m-9 0V84.2" clip-path="url(#p3d57d84da8)" style="fill:none;stroke:#172033;stroke-width:2.2;stroke-linecap:round"/><path id="line2d_35" d="M406.08 134.36h104.4" clip-path="url(#p3d57d84da8)" style="fill:none;stroke:#172033;stroke-width:2.2;stroke-linecap:round"/><path id="line2d_36" d="M406.08 192.2h104.4" clip-path="url(#p3d57d84da8)" style="fill:none;stroke:#172033;stroke-width:2.2;stroke-linecap:round"/><path id="line2d_37" d="M510.48 242.36v-18.78m-9-12.6h18m-9 0V192.2" clip-path="url(#p3d57d84da8)" style="fill:none;stroke:#172033;stroke-width:2.2;stroke-linecap:round"/><path id="line2d_38" d="M406.08 242.36h104.4" clip-path="url(#p3d57d84da8)" style="fill:none;stroke:#172033;stroke-width:2.2;stroke-linecap:round"/><path id="line2d_39" d="M118.08 84.2V37.4" clip-path="url(#p3d57d84da8)" style="fill:none;stroke:#172033;stroke-width:2.2;stroke-linecap:round"/><path id="line2d_40" d="M406.08 84.2V37.4" clip-path="url(#p3d57d84da8)" style="fill:none;stroke:#172033;stroke-width:2.2;stroke-linecap:round"/><path id="line2d_41" d="M118.08 37.4h288" clip-path="url(#p3d57d84da8)" style="fill:none;stroke:#172033;stroke-width:2.2;stroke-linecap:round"/><path id="line2d_42" d="M262.08 37.4V23" clip-path="url(#p3d57d84da8)" style="fill:none;stroke:#172033;stroke-width:2.2;stroke-linecap:round"/><path id="line2d_43" d="M262.08 23h-6.75" clip-path="url(#p3d57d84da8)" style="fill:none;stroke:#172033;stroke-width:2.2;stroke-linecap:round"/><path id="line2d_44" d="M262.08 23h6.75" clip-path="url(#p3d57d84da8)" style="fill:none;stroke:#172033;stroke-width:2.2;stroke-linecap:round"/><path id="line2d_45" d="M118.08 242.36v46.8" clip-path="url(#p3d57d84da8)" style="fill:none;stroke:#172033;stroke-width:2.2;stroke-linecap:round"/><path id="line2d_46" d="M406.08 242.36v46.8" clip-path="url(#p3d57d84da8)" style="fill:none;stroke:#172033;stroke-width:2.2;stroke-linecap:round"/><path id="line2d_47" d="M118.08 289.16h288" clip-path="url(#p3d57d84da8)" style="fill:none;stroke:#172033;stroke-width:2.2;stroke-linecap:round"/><path id="line2d_48" d="M262.08 289.16v14.4h-9 18m-15.3 4.32h12.6m-8.1 4.32h3.6" clip-path="url(#p3d57d84da8)" style="fill:none;stroke:#172033;stroke-width:2.2;stroke-linecap:round"/><path id="line2d_49" d="M118.08 163.28h82.8" clip-path="url(#p3d57d84da8)" style="fill:none;stroke:#172033;stroke-width:2.2;stroke-linecap:round"/><path id="line2d_50" d="M200.88 163.28h17.28m51.84 0h17.28" clip-path="url(#p3d57d84da8)" style="fill:none;stroke:#172033;stroke-width:2.2;stroke-linecap:round"/><path id="line2d_51" d="M226.08 171.2h-7.92v-15.84h7.92" clip-path="url(#p3d57d84da8)" style="fill:none;stroke:#172033;stroke-width:2.2;stroke-linecap:round"/><path id="line2d_52" d="M262.08 171.2H270v-15.84h-7.92" clip-path="url(#p3d57d84da8)" style="fill:none;stroke:#172033;stroke-width:2.2;stroke-linecap:round"/><path id="line2d_53" d="M287.28 163.28h118.8" clip-path="url(#p3d57d84da8)" style="fill:none;stroke:#172033;stroke-width:2.2;stroke-linecap:round"/><g id="text_1" style="fill:#172033" transform="matrix(.14 0 0 -.14 139.62 113.78)"><defs><path id="DejaVuSans-Oblique-34" d="M2309-84q-34-4-72-5-37-2-112-2-875 0-1369 502-493 502-493 1386 0 522 189 1047t526 944q391 481 880 721 489 241 1080 241 856 0 1349-505 494-504 494-1376 0-941-516-1722Q3750 366 2919 44l634-869h-706zm610 4322q-519 0-916-252t-690-767q-188-328-287-697-98-369-98-744 0-650 311-1003t880-353q512 0 913 254 402 255 687 758 190 338 290 708 100 371 100 739 0 647-313 1002-312 355-877 355" transform="scale(.01563)"/><path id="DejaVuSans-14" d="M794 531h1031v3560L703 3866v575l1116 225h631V531h1031V0H794z" transform="scale(.01563)"/></defs><use xlink:href="#DejaVuSans-Oblique-34" transform="translate(0 .781)"/><use xlink:href="#DejaVuSans-14" transform="matrix(.7 0 0 .7 78.71 -14.219)"/></g><g id="text_2" style="fill:#172033" transform="matrix(.14 0 0 -.14 139.62 221.71)"><defs><path id="DejaVuSans-16" d="M2597 2516q453-97 707-404 255-306 255-756 0-690-475-1069Q2609-91 1734-91q-293 0-604 58T488 141v609q262-153 574-231 313-78 654-78 593 0 904 234t311 681q0 413-289 645-289 233-804 233h-544v519h569q465 0 712 186t247 536q0 359-255 551-254 193-729 193-260 0-557-57-297-56-653-174v562q360 100 674 150t592 50q719 0 1137-327 419-326 419-882 0-388-222-655t-631-370" transform="scale(.01563)"/></defs><use xlink:href="#DejaVuSans-Oblique-34" transform="translate(0 .781)"/><use xlink:href="#DejaVuSans-16" transform="matrix(.7 0 0 .7 78.71 -14.219)"/></g><path id="patch_15" d="M71.22 111.98a2.7 2.7 0 1 0 0-5.4 2.7 2.7 0 0 0 0 5.4z" clip-path="url(#p3d57d84da8)" style="fill:#fff;stroke:#172033;stroke-width:2.2;stroke-linejoin:miter"/><path id="patch_16" d="M71.22 219.98a2.7 2.7 0 1 0 0-5.4 2.7 2.7 0 0 0 0 5.4z" clip-path="url(#p3d57d84da8)" style="fill:#fff;stroke:#172033;stroke-width:2.2;stroke-linejoin:miter"/><g id="text_3" style="fill:#172033" transform="matrix(.14 0 0 -.14 427.62 113.78)"><defs><path id="DejaVuSans-15" d="M1228 531h2203V0H469v531q359 372 979 998 621 627 780 809 303 340 423 576 121 236 121 464 0 372-261 606-261 235-680 235-297 0-627-103-329-103-704-313v638q381 153 712 231 332 78 607 78 725 0 1156-363 431-362 431-968 0-288-108-546-107-257-392-607-78-91-497-524-418-433-1181-1211" transform="scale(.01563)"/></defs><use xlink:href="#DejaVuSans-Oblique-34" transform="translate(0 .781)"/><use xlink:href="#DejaVuSans-15" transform="matrix(.7 0 0 .7 78.71 -14.219)"/></g><g id="text_4" style="fill:#172033" transform="matrix(.14 0 0 -.14 427.62 221.78)"><defs><path id="DejaVuSans-17" d="M2419 4116 825 1625h1594zm-166 550h794V1625h666v-525h-666V0h-628v1100H313v609z" transform="scale(.01563)"/></defs><use xlink:href="#DejaVuSans-Oblique-34" transform="translate(0 .781)"/><use xlink:href="#DejaVuSans-17" transform="matrix(.7 0 0 .7 78.71 -14.219)"/></g><path id="patch_17" d="M359.22 111.98a2.7 2.7 0 1 0 0-5.4 2.7 2.7 0 0 0 0 5.4z" clip-path="url(#p3d57d84da8)" style="fill:#fff;stroke:#172033;stroke-width:2.2;stroke-linejoin:miter"/><path id="patch_18" d="M359.22 219.98a2.7 2.7 0 1 0 0-5.4 2.7 2.7 0 0 0 0 5.4z" clip-path="url(#p3d57d84da8)" style="fill:#fff;stroke:#172033;stroke-width:2.2;stroke-linejoin:miter"/><g id="text_5" style="fill:#172033" transform="matrix(.14 0 0 -.14 245.98 15.67)"><defs><path id="DejaVuSans-Oblique-39" d="M1319 0 500 4666h619l678-4013 2266 4013h687L2053 0z" transform="scale(.01563)"/><path id="DejaVuSans-Oblique-30" d="M1081 4666h947l544-3144 1806 3144h972L4441 0h-613l794 4091L2791 897h-616l-594 3206L788 0H172z" transform="scale(.01563)"/><path id="DejaVuSans-Oblique-32" d="M2919 4238q-519 0-916-252t-690-767q-188-328-287-697-98-369-98-744 0-650 311-1003t880-353q512 0 913 254 402 255 687 758 190 338 290 708 100 371 100 739 0 647-313 1002-312 355-877 355M2100-91q-859 0-1352 509-492 510-492 1395 0 506 192 1034 193 528 530 941 397 484 884 723 488 239 1076 239 856 0 1349-505 494-504 494-1376 0-538-188-1057-187-518-537-940-400-488-883-726Q2691-91 2100-91" transform="scale(.01563)"/><path id="DejaVuSans-Oblique-37" d="M378 4666h3947l-100-532H2559L1759 0h-634l800 4134H275z" transform="scale(.01563)"/></defs><use xlink:href="#DejaVuSans-Oblique-39" transform="translate(0 .094)"/><use xlink:href="#DejaVuSans-Oblique-30" transform="matrix(.7 0 0 .7 68.408 -14.906)"/><use xlink:href="#DejaVuSans-Oblique-32" transform="matrix(.7 0 0 .7 128.804 -14.906)"/><use xlink:href="#DejaVuSans-Oblique-37" transform="matrix(.7 0 0 .7 183.901 -14.906)"/></g><g id="text_6" style="fill:#172033" transform="matrix(.14 0 0 -.14 245.452 130.484)"><defs><path id="DejaVuSans-30" d="M628 4666h941l1190-3175 1197 3175h941V0h-616v4097L3078 897h-634L1241 4097V0H628z" transform="scale(.01563)"/><path id="DejaVuSans-52" d="M1959 3097q-462 0-731-361t-269-989 267-989q268-361 733-361 460 0 728 362 269 363 269 988 0 622-269 986-268 364-728 364m0 487q750 0 1178-488 429-487 429-1349 0-859-429-1349Q2709-91 1959-91q-753 0-1180 489-426 490-426 1349 0 862 426 1349 427 488 1180 488" transform="scale(.01563)"/><path id="DejaVuSans-57" d="M1172 4494v-994h1184v-447H1172V1153q0-428 117-550t477-122h590V0h-590q-666 0-919 248-253 249-253 905v1900H172v447h422v994z" transform="scale(.01563)"/><path id="DejaVuSans-55" d="M2631 2963q-97 56-211 82-114 27-251 27-488 0-749-317t-261-911V0H581v3500h578v-544q182 319 472 473 291 155 707 155 59 0 131-8 72-7 159-23z" transform="scale(.01563)"/></defs><use xlink:href="#DejaVuSans-30"/><use xlink:href="#DejaVuSans-52" transform="translate(86.281)"/><use xlink:href="#DejaVuSans-57" transform="translate(147.469)"/><use xlink:href="#DejaVuSans-52" transform="translate(186.672)"/><use xlink:href="#DejaVuSans-55" transform="translate(247.86)"/></g><path id="patch_19" d="M118.08 86.72a2.52 2.52 0 1 0 0-5.04 2.52 2.52 0 0 0 0 5.04z" clip-path="url(#p3d57d84da8)" style="fill:#172033;stroke:#172033;stroke-width:2.2;stroke-linejoin:miter"/><path id="patch_20" d="M118.08 136.88a2.52 2.52 0 1 0 0-5.04 2.52 2.52 0 0 0 0 5.04z" clip-path="url(#p3d57d84da8)" style="fill:#172033;stroke:#172033;stroke-width:2.2;stroke-linejoin:miter"/><path id="patch_21" d="M118.08 194.72a2.52 2.52 0 1 0 0-5.04 2.52 2.52 0 0 0 0 5.04z" clip-path="url(#p3d57d84da8)" style="fill:#172033;stroke:#172033;stroke-width:2.2;stroke-linejoin:miter"/><path id="patch_22" d="M118.08 244.88a2.52 2.52 0 1 0 0-5.04 2.52 2.52 0 0 0 0 5.04z" clip-path="url(#p3d57d84da8)" style="fill:#172033;stroke:#172033;stroke-width:2.2;stroke-linejoin:miter"/><path id="patch_23" d="M406.08 86.72a2.52 2.52 0 1 0 0-5.04 2.52 2.52 0 0 0 0 5.04z" clip-path="url(#p3d57d84da8)" style="fill:#172033;stroke:#172033;stroke-width:2.2;stroke-linejoin:miter"/><path id="patch_24" d="M406.08 136.88a2.52 2.52 0 1 0 0-5.04 2.52 2.52 0 0 0 0 5.04z" clip-path="url(#p3d57d84da8)" style="fill:#172033;stroke:#172033;stroke-width:2.2;stroke-linejoin:miter"/><path id="patch_25" d="M406.08 194.72a2.52 2.52 0 1 0 0-5.04 2.52 2.52 0 0 0 0 5.04z" clip-path="url(#p3d57d84da8)" style="fill:#172033;stroke:#172033;stroke-width:2.2;stroke-linejoin:miter"/><path id="patch_26" d="M406.08 244.88a2.52 2.52 0 1 0 0-5.04 2.52 2.52 0 0 0 0 5.04z" clip-path="url(#p3d57d84da8)" style="fill:#172033;stroke:#172033;stroke-width:2.2;stroke-linejoin:miter"/><path id="patch_27" d="M262.08 39.92a2.52 2.52 0 1 0 0-5.04 2.52 2.52 0 0 0 0 5.04z" clip-path="url(#p3d57d84da8)" style="fill:#172033;stroke:#172033;stroke-width:2.2;stroke-linejoin:miter"/><path id="patch_28" d="M262.08 291.68a2.52 2.52 0 1 0 0-5.04 2.52 2.52 0 0 0 0 5.04z" clip-path="url(#p3d57d84da8)" style="fill:#172033;stroke:#172033;stroke-width:2.2;stroke-linejoin:miter"/><path id="patch_29" d="M118.08 165.98a2.7 2.7 0 1 0 0-5.4 2.7 2.7 0 0 0 0 5.4z" clip-path="url(#p3d57d84da8)" style="fill:#172033;stroke:#172033;stroke-width:2.2;stroke-linejoin:miter"/><path id="patch_30" d="M406.08 165.98a2.7 2.7 0 1 0 0-5.4 2.7 2.7 0 0 0 0 5.4z" clip-path="url(#p3d57d84da8)" style="fill:#172033;stroke:#172033;stroke-width:2.2;stroke-linejoin:miter"/></g></g><defs><clipPath id="p3d57d84da8"><path d="M0 0h524.16v316.88H0z"/></clipPath></defs></svg>